<?xml version="1.0" encoding="utf-8"?>
<!-- Generator: Adobe Illustrator 19.1.0, SVG Export Plug-In . SVG Version: 6.00 Build 0)  -->
<svg version="1.1" id="Ebene_1" xmlns="http://www.w3.org/2000/svg" xmlns:xlink="http://www.w3.org/1999/xlink" x="0px" y="0px"
	 viewBox="0 0 237 222" style="enable-background:new 0 0 237 222;" xml:space="preserve">
<style type="text/css">
	.st0{fill:#663FFA;}
	.st1{fill:#6741FA;}
</style>
<g>
	<path class="st0" d="M111,126.8c0-28.8,0-57.6,0.1-86.4c0-1.6-1.3-4.1,2.1-4.5c3.8-0.4,3.9,1.6,3.9,4.4c-0.1,27.3,0,54.6,0,82
		c0,1.6,0,3.2,0,6.1c6.7-6.7,12.6-12.5,18.4-18.4c1.7-1.7,2.8-3.4,5.4-0.6c2.4,2.6,0.7,3.6-0.8,5.1c-7.8,7.8-15.7,15.5-23.3,23.4
		c-2.2,2.3-3.4,2.1-5.5-0.1c-7.6-7.9-15.5-15.6-23.3-23.4c-1.7-1.7-2.7-2.9-0.5-5.2c2.4-2.5,3.5-1,5.1,0.6
		c5.8,6,11.5,11.9,17.3,17.8C110.2,127.3,110.6,127.1,111,126.8z"/>
	<path class="st1" d="M113.9,164.4c-17.5,0-35-0.1-52.5,0.1c-3.6,0-5.1-0.8-4.9-4.7c0.3-5.5,0.1-11,0.1-16.5c0-1.9,0.3-3.2,2.7-3.2
		c2.2,0,3.5,0.5,3.4,3c-0.1,3.5,0.2,7-0.1,10.5c-0.3,3.8,1.1,4.8,4.8,4.7c21.3-0.2,42.7-0.1,64-0.1c10,0,20-0.1,30,0.1
		c3.2,0.1,4.5-0.8,4.3-4.2c-0.3-3.6,0-7.3-0.1-11c0-2,0.6-3,2.8-3.1c2.3,0,3.3,0.8,3.3,3.2c-0.1,6-0.1,12,0,18
		c0.1,3.4-2.1,3.1-4.3,3.1C149.6,164.4,131.7,164.4,113.9,164.4z"/>
</g>
</svg>
