<?xml version="1.0" encoding="utf-8"?>
<!-- Generator: Adobe Illustrator 19.1.0, SVG Export Plug-In . SVG Version: 6.00 Build 0)  -->
<svg version="1.1" id="Ebene_1" xmlns="http://www.w3.org/2000/svg" xmlns:xlink="http://www.w3.org/1999/xlink" x="0px" y="0px"
	 viewBox="0 0 633.3 534" style="enable-background:new 0 0 633.3 534;" xml:space="preserve">
<style type="text/css">
	.st0{fill:#663FFA;}
	.st1{fill:#FEFEFE;}
	.st2{fill:#AA94FC;}
</style>
<g>
	<path class="st0" d="M633.3,270.6c-1.4,64.5-23.4,124.5-69.4,175.3c-41.9,46.3-93.8,74.3-155.2,84.7c-22.1,3.7-44.4,5-66.6,1.4
		c-18-3-35-9.3-51.7-16.5c-38.7-16.8-73.1-40.4-106.1-66.2C116.5,396,56.1,335.2,0,270c-1.6-1.9-2.8-3.1-0.6-5.7
		C59.6,194.6,124.3,129.6,198,74.1c33.2-25,68.2-47.1,107.4-61.9c25-9.5,50.5-13.6,77.3-11.8C445.3,4.7,500,27.6,546.2,69.9
		c43.6,39.9,71.2,89.1,82.3,147.4C631.6,233.7,632.9,250.3,633.3,270.6z"/>
	<path class="st1" d="M293.3,253.4c3.9,1.6,7.1,2.9,10.3,4.3c19.2,8.8,24.3,30.5,11.1,47c-8.8,11.1-21,15.9-34.4,17
		c-27.1,2.3-54.3,0.6-81.4,1c-1.1,0-3,0.8-2.7-1.6c0.3-1.9-0.2-4.4,2.5-4.9c14.4-2.8,18.8-13.8,21.9-26.1
		c6.1-23.9,12.3-47.7,18.5-71.5c0.8-3.1,1.6-6.1,1.5-9.3c-0.2-7.9-3.1-11.6-10.7-13.4c-1.3-0.3-3.7,0.3-3-2c0.5-1.8,0.5-4.6,3.5-4.7
		c1.5-0.1,3,0,4.5,0c18,0,36-0.1,54,0.1c8,0.1,16,0.6,23.4,4.1c10.9,5.3,17.8,13.4,18.2,25.9c0.4,13-6.7,21.5-17.6,27.3
		C306.9,249.5,300.4,251.3,293.3,253.4z"/>
	<path class="st1" d="M522.4,302.9c-3.2,5.3-7.1,10.1-11.7,14.3c-5.6,5.1-12.4,7.2-19.8,6.5c-14.1-1.4-22-13.1-19.2-28.1
		c1.3-7.3,3.7-14.2,7.5-20.5c8.3-13.9,18.4-26.1,32.4-34.7c10.8-6.7,21.6-6.9,32.1,1c1.8,1.3,3.3,2.7,4.3-0.5
		c1.6-5.3,5.7-5.1,10.4-4.8c-5.2,17.2-10.2,34-15.3,50.8c-1.3,4.5-2.8,8.9-3.9,13.4c-0.8,3-2.3,6.8,1.3,8.5c3.1,1.5,6-0.9,8-3.6
		c1.7-2.2,3.8-4.3,5.2-6.7c1.9-3.3,4.3-4.4,8.4-3c-5.1,10.1-10.7,19.6-20.8,25.4c-8.8,5-17.4-0.2-17.9-10.3
		c-0.1-2.2,0.1-4.3,0.1-6.5C523.8,302.9,523.9,302.1,522.4,302.9z"/>
	<path class="st1" d="M400.8,294.2c-9.2,14.6-19.4,26.8-37.7,28.5c-13.9,1.3-26.4-9.9-25.4-23.8c1.9-27,15.9-46.6,38.9-60.2
		c3.6-2.2,7.7-3.1,11.9-3.2c10.3-0.2,16.7,7.9,14.4,18.4c-1.9,8.9-7.7,15-15,19.7c-9.2,6-19.4,9.3-30.1,11.5c-6,1.3-7,2.8-6.1,8.8
		c1.7,12.7,10.1,18,22.5,14.3c6.3-1.8,11.9-5.1,15.4-10.5C392.4,293.2,395.8,293.3,400.8,294.2z"/>
	<path class="st1" d="M455.2,223.3c-1.5,4.9-2.9,9.4-4.5,14.4c6.1,0,11.7,0,17.4,0c-0.1,5.3-2,7.5-7.6,7.3
		c-12.4-0.5-12.4-0.1-16,11.8c-4.3,14.5-8.7,29-12.9,43.5c-1,3.5-3.2,7.9,1,10.4c3.9,2.3,7.7-0.4,10.8-2.9c2.8-2.3,5.7-4.8,7.9-7.6
		c2.6-3.3,5.6-3.6,10.2-2.8c-10,11.5-19.3,22.6-35.3,23.9c-7.2,0.6-10.6-2.5-11-9.6c-0.2-4,0.4-7.9,1.6-11.8
		c5.2-16.7,10.1-33.4,15.4-50c1.3-4.2,0.5-5.7-3.9-5c-1.6,0.2-3.4,0.3-5,0c-1.6-0.4-4.7,1.6-4.7-1.5c0-2.8,0.9-6,5-6.3
		c8-0.7,14.6-4.3,20.2-9.9C448,222.9,447.9,222.8,455.2,223.3z"/>
	<path class="st2" d="M522.4,302.9c0.4-0.8,0.8-1.6,1.3-2.7c1.1,1.6,0.5,2.7-0.2,3.7C523.1,303.6,522.8,303.3,522.4,302.9z"/>
	<path class="st0" d="M263.3,312.9c-4-0.1-8,0-11.9-0.7c-10.3-1.8-15.6-9.8-12.8-20c3-11,6.4-22,9.6-33c0.5-1.9,0.9-3.5,3.4-3.3
		c8.1,0.3,16.3-0.5,24.4,0.6c14.1,2,24.3,11.2,25.3,22.7c1.3,14.6-7.7,27.8-21.7,32C274.3,312.8,268.8,313,263.3,312.9z"/>
	<path class="st0" d="M262.2,247.6c-3.3-0.6-8.9,2-11-1.1c-1.5-2.1,1.3-7.4,2.4-11.2c3.3-12,6.8-24,10-36c0.8-3,2.1-4.4,5.4-4.2
		c5.3,0.3,10.6,0.1,16,0.6c12.7,1.3,21.1,7.5,23.2,17.7c2.2,10.8-3.8,23.1-13.7,28.8c-7.7,4.4-16.1,4.9-24.6,5.3
		C267.6,247.6,265.3,247.6,262.2,247.6z"/>
	<path class="st0" d="M536.5,257c-3,17.6-11.1,34.9-26.3,48.3c-5.4,4.8-12.9,5.4-18.1,1.9c-5.8-3.9-7-9.7-6.1-16.2
		c2.4-17.8,10.8-32.2,24.4-43.7c3.6-3.1,7.7-5.2,12.6-5.5C531.8,241,536.8,245.9,536.5,257z"/>
	<path class="st0" d="M353.3,278.9c4.2-12.1,8.9-23,18.5-31c1.9-1.6,4-2.8,6.6-3.3c9.3-2,14.7,3.5,12.1,12.7
		c-1.8,6.1-6.2,10.2-11.4,13.4C371.5,275.4,363.1,277.7,353.3,278.9z"/>
</g>
</svg>
