<?xml version="1.0" encoding="utf-8"?>
<!-- Generator: Adobe Illustrator 19.1.0, SVG Export Plug-In . SVG Version: 6.00 Build 0)  -->
<svg version="1.1" id="Ebene_1" xmlns="http://www.w3.org/2000/svg" xmlns:xlink="http://www.w3.org/1999/xlink" x="0px" y="0px"
	 viewBox="-585 349 108 104" style="enable-background:new -585 349 108 104;" xml:space="preserve">
<g>
	<g>
		<path d="M-482.1,397.2c0,2.1,0,3.8,0,5.2c-0.5,0.3-0.8,0.7-1.1,0.6c-5.8-0.6-8.1,1.8-9.9,7.7c-5.1,17-17.2,26.8-34.6,28.8
			c-3.5,2.5,2.5,9.8-5.1,9.4c-6.7-0.4-1.1-6.6-5.2-9.8c-9.7-2-19.5-7.1-25.5-17.3c-2.7-4.5-4.8-9.5-6.3-14.5c-0.9-3-1.8-4.2-4.9-4.1
			c-2.3,0.1-5.3,1-5.3-3.2s3-3,5.3-3.2c1.2-0.1,2.3-0.1,3.8-0.2c3.8-19.2,14.7-31.9,33.6-35.8c3.1-3.1-2.2-9.7,4.8-9.7
			c6.9,0,1.6,6.3,5,9.3c0.1,0,1.4,0.3,2.6,0.5c15.9,2.8,29.2,14.7,32.5,30.3c1,5,3,6.3,7.5,5.7
			C-484.1,396.8-483.3,397.1-482.1,397.2z M-498.4,396.6c0.3-14.8-15.6-29.8-30.3-28.7c-0.2,2.6-0.3,5.1-0.5,7.7c-2.5,0-4.5,0-6.6,0
			c-0.2-2.7-0.4-5-0.6-7.2c-13.3-1.8-29,18.6-26.8,28.2c2.6,0.2,5.2,0.3,8,0.5c0,2.1,0,3.8,0,5.8c-3,0.3-5.7,0.6-8.3,0.8
			c-0.4,12.5,15.7,29.9,27,28c1.2-8.8,1.2-8.8,7.4-7c0.2,2.5,0.4,5.1,0.6,7.7c15.3,0.3,31.9-15.8,29.8-28.9
			c-2.7-0.2-5.4-0.5-8.4-0.7c0.1-2.4,0.2-4.1,0.3-5.8C-503.6,396.9-501,396.8-498.4,396.6z"/>
	</g>
</g>
</svg>
