<?xml version="1.0" encoding="utf-8"?>
<!-- Generator: Adobe Illustrator 19.1.0, SVG Export Plug-In . SVG Version: 6.00 Build 0)  -->
<svg version="1.1" id="Ebene_1" xmlns="http://www.w3.org/2000/svg" xmlns:xlink="http://www.w3.org/1999/xlink" x="0px" y="0px"
	 viewBox="0 0 394.3 439.5" style="enable-background:new 0 0 394.3 439.5;" xml:space="preserve">
<g>
	<path d="M76.1,45.6c0,10,0,19.4,0,29.5c1.9,0.2,3.5,0.4,5.1,0.4c16.7,0,33.3-0.1,50,0.1c4.4,0.1,5.3-1.6,5.2-5.6
		c-0.2-8-0.1-15.9-0.1-24.3c35.6,0,70.7,0,106.5,0c0,7.9,0.3,15.7-0.1,23.5c-0.3,5.1,1.4,6.5,6.4,6.4c16-0.3,32-0.1,48-0.1
		c1.7,0,3.3,0,5.7,0c0-10.1,0-19.8,0-29.8c2.1-0.2,3.6-0.4,5-0.4c27,0,54,0.1,81-0.1c4.1,0,5.4,1.1,5.4,5.3
		c-0.1,127.8-0.1,255.6,0,383.4c0,4.5-1.4,5.5-5.7,5.5c-127.6-0.1-255.3-0.1-382.9,0c-4.3,0-5.7-1.1-5.7-5.6
		C0.1,306.3,0.1,178.6,0,51c0-4.2,0.8-5.8,5.4-5.8c21.8,0.2,43.7,0.1,65.5,0.1C72.4,45.4,73.9,45.5,76.1,45.6z M196.6,408.6
		c53.3,0,106.7,0,160,0c6.8,0,6.9,0,6.9-6.8c0-91.2,0-182.3,0-273.5c0-6.8,0-6.8-6.8-6.8c-106.3,0-212.6,0-319,0
		c-6.8,0-6.8,0-6.8,6.7c0,91.2,0,182.3,0,273.5c0,6.9,0,6.9,7.2,6.9C90.9,408.6,143.8,408.6,196.6,408.6z"/>
	<path d="M257.9,60.7c0-20.4,0-40.2,0-60.6c9.5,0,18.6-0.1,27.7,0.1c0.9,0,2.5,2.1,2.5,3.2c0.2,18,0.2,35.9,0,53.9
		c0,1.1-1.6,3.2-2.5,3.2C276.5,60.8,267.4,60.7,257.9,60.7z"/>
	<path d="M121.5,30.9c0,8.5-0.1,17,0,25.5c0.1,3.1-0.9,4.5-4.2,4.4c-7.5-0.2-15-0.2-22.5,0c-3.2,0.1-3.9-1.3-3.9-4.2
		c0.1-17.5,0.1-35,0-52.4c0-2.9,0.8-4.2,3.9-4.2c7.5,0.2,15,0.2,22.5,0c3.4-0.1,4.3,1.3,4.2,4.4C121.5,13.3,121.5,22.1,121.5,30.9z"
		/>
	<path d="M116.9,249.4c-10.2,0-19.9,0-29.5,0c-3,0-3-1.7-2.9-4c1.9-32.9,26.1-55.7,59.1-55c17,0.3,32.5,5.2,44.7,17.9
		c12.7,13.2,15.5,32.2,7.3,48.6c-3.8,7.5-10,12.1-18.5,15.4c2.1,0.8,3.2,1.3,4.4,1.8c14.7,5.3,24.4,18.6,24.9,34.2
		c1,29.6-17.7,51.9-48.4,57.1c-15.9,2.7-31.6,1.8-46.4-5.2C89.9,350,81.4,331.7,80.3,309c-0.1-1.3,1.9-3.8,2.9-3.8
		c9.8-0.3,19.6-0.2,29.3-0.2c1.3,5.3,2.1,10.3,3.7,14.9c3.9,10.9,11.8,17.2,23.4,18.1c11.4,0.9,21-2.4,27.3-12.8
		c9.3-15.6,1.3-34-16.5-37.1c-6.2-1.1-12.5-1.2-19.1-1.7c0-8,0-15.7,0-23.5c5.9-0.5,11.5-0.7,17.1-1.6c13-2.1,19.4-10,18.7-22.8
		c-0.5-10-9.7-18.3-21-19.1c-16.7-1.2-26.8,7.6-28.8,24.9C117.2,245.7,117.1,247.2,116.9,249.4z"/>
	<path d="M271.3,253.6c-14.7,0-28.4,0-42.5,0c0-8.9,0-17.3,0-25.2c8.2-1.4,16-2.1,23.5-4.2c13-3.7,21.5-12.4,24.8-25.6
		c1-4.1,2.9-5.2,6.8-5c5.6,0.3,11.3,0.3,17,0c3.9-0.2,5.2,1.2,5.2,5.2c-0.2,16.5-0.1,33-0.1,49.5c0,36.1,0,72.3,0,108.4
		c0,2.1-0.2,4.2-0.3,6.6c-11.5,0-22.6,0-34.3,0C271.3,326.9,271.3,290.7,271.3,253.6z"/>
</g>
</svg>
