<?xml version="1.0" encoding="utf-8"?>
<!-- Generator: Adobe Illustrator 16.0.0, SVG Export Plug-In . SVG Version: 6.00 Build 0)  -->
<!DOCTYPE svg PUBLIC "-//W3C//DTD SVG 1.1//EN" "http://www.w3.org/Graphics/SVG/1.1/DTD/svg11.dtd">
<svg version="1.1" id="female-large" xmlns="http://www.w3.org/2000/svg" xmlns:xlink="http://www.w3.org/1999/xlink" x="0px"
	 y="0px" width="100px" height="230px" viewBox="0 0 100 230" enable-background="new 0 0 100 230" xml:space="preserve">
<g>
	<path fill="#444444" d="M48.541,137.854v26.37c0,0.024,0,0.042,0,0.056c-0.033,2.217-1.805,4.011-3.978,4.011
		c-2.192,0-3.978-1.825-3.978-4.074v-26.37c0-0.006,0-0.014,0-0.019h7.956C48.541,137.84,48.541,137.848,48.541,137.854z"/>
	<path fill="#444444" d="M60.422,137.854v26.37c0,2.249-1.786,4.074-3.979,4.074c-2.172,0-3.939-1.794-3.974-4.011
		c0-0.021,0-0.039,0-0.056c0-0.016,0-0.042,0-0.058v-26.303c0-0.008,0-0.018,0-0.023h7.953
		C60.422,137.84,60.422,137.848,60.422,137.854z"/>
	<path fill="#444444" d="M68.16,122.566l-7.402-31.821l-3.819,0.935l9.8,42.138H34.161l9.798-42.138l-3.822-0.932l-7.396,31.789
		l-1.945-0.475c-2.135-0.521-3.455-2.725-2.947-4.904l7.062-30.342c0,0,0-0.002,0.003-0.005c1.067-4.583,5.035-7.782,9.642-7.782
		h11.882c4.61,0,8.573,3.194,9.643,7.785l0.003,0.002l7.062,30.337c0,0,0,0,0,0.005c0.507,2.183-0.814,4.384-2.949,4.904
		L68.16,122.566z"/>
	<path fill="#444444" d="M50.506,74.938c-3.829,0-6.949-3.191-6.949-7.115c0-3.932,3.118-7.118,6.949-7.118
		c3.83,0,6.948,3.194,6.948,7.118C57.454,71.742,54.336,74.938,50.506,74.938z"/>
</g>
</svg>
