<?xml version="1.0" encoding="utf-8"?>
<!-- Generator: Adobe Illustrator 19.1.0, SVG Export Plug-In . SVG Version: 6.00 Build 0)  -->
<svg version="1.1" id="Ebene_1" xmlns="http://www.w3.org/2000/svg" xmlns:xlink="http://www.w3.org/1999/xlink" x="0px" y="0px"
	 viewBox="-57 59.8 12 11.2" style="enable-background:new -57 59.8 12 11.2;" xml:space="preserve">
<style type="text/css">
	.st0{fill:#010101;}
	.st1{fill:#020202;}
	.st2{fill:#85E664;}
	.st3{fill:none;stroke:#85E664;stroke-width:0.1204;}
	.st4{fill:#6633FF;}
	.st5{fill:none;stroke:#6633FF;stroke-width:0.1233;}
</style>
<g>
	<g>
		<path d="M-51.8,67.3c-1.2,0-2.4,0-3.5,0c-0.4,0-0.3-0.1-0.2-0.4c0.3-1.2,0.6-2.3,0.9-3.5c0-0.1,0.3-0.3-0.1-0.4
			c-0.3,0-0.3,0.3-0.3,0.4c-0.2,0.8-0.4,1.6-0.6,2.3c-0.1,0.2,0,0.5-0.4,0.4c-0.3,0-0.4-0.3-0.3-0.6c0.2-0.7,0.4-1.3,0.5-2
			c0.4-1.9,0.6-1.8,2.9-1.7c0.6,0,0.9,0.3,1.1,0.8c0.3,1,0.5,1.9,0.8,2.9c0,0.2,0,0.4-0.2,0.5c-0.3,0.2-0.5,0.2-0.6-0.1
			c-0.2-0.9-0.4-1.7-0.6-2.5c0-0.1,0-0.4-0.3-0.3c-0.3,0-0.1,0.2-0.1,0.4C-52.5,64.7-52.1,66-51.8,67.3z"/>
		<path class="st0" d="M-53.9,69.2c0,0.4,0,0.8,0,1.1c0,0.3-0.1,0.4-0.4,0.4c-0.3,0-0.5-0.1-0.5-0.4c0-0.8,0-1.6,0-2.4
			c0-0.4,0.3-0.2,0.5-0.2s0.4,0,0.4,0.3C-53.9,68.4-53.9,68.8-53.9,69.2z"/>
		<path class="st0" d="M-52.5,69.2c0,0.4,0,0.7,0,1.1c0,0.3-0.1,0.5-0.5,0.5c-0.3,0-0.4-0.2-0.4-0.5c0-0.7,0-1.5,0-2.2
			c0-0.3,0.2-0.4,0.5-0.4s0.5,0,0.5,0.3C-52.6,68.4-52.5,68.8-52.5,69.2z"/>
		<path class="st1" d="M-52.9,60.7c0,0.4-0.3,0.7-0.8,0.7s-0.8-0.2-0.8-0.7c-0.1-0.4,0.3-0.8,0.8-0.8S-52.9,60.2-52.9,60.7z"/>
	</g>
	<g>
		<path class="st2" d="M-51.8,67.3c-1.2,0-2.4,0-3.5,0c-0.4,0-0.3-0.1-0.2-0.4c0.3-1.2,0.6-2.3,0.9-3.5c0-0.1,0.3-0.3-0.1-0.4
			c-0.3,0-0.3,0.3-0.3,0.4c-0.2,0.8-0.4,1.6-0.6,2.3c-0.1,0.2,0,0.5-0.4,0.4c-0.3,0-0.4-0.3-0.3-0.6c0.2-0.7,0.4-1.3,0.5-2
			c0.4-1.9,0.6-1.8,2.9-1.7c0.6,0,0.9,0.3,1.1,0.8c0.3,1,0.5,1.9,0.8,2.9c0,0.2,0,0.4-0.2,0.5c-0.3,0.2-0.5,0.2-0.6-0.1
			c-0.2-0.9-0.4-1.7-0.6-2.5c0-0.1,0-0.4-0.3-0.3c-0.3,0-0.1,0.2-0.1,0.4C-52.5,64.7-52.1,66-51.8,67.3z"/>
		<path class="st2" d="M-53.9,69.2c0,0.4,0,0.8,0,1.1c0,0.3-0.1,0.4-0.4,0.4c-0.3,0-0.5-0.1-0.5-0.4c0-0.8,0-1.6,0-2.4
			c0-0.4,0.3-0.2,0.5-0.2s0.4,0,0.4,0.3C-53.9,68.4-53.9,68.8-53.9,69.2z"/>
		<path class="st2" d="M-52.5,69.2c0,0.4,0,0.7,0,1.1c0,0.3-0.1,0.5-0.5,0.5c-0.3,0-0.4-0.2-0.4-0.5c0-0.7,0-1.5,0-2.2
			c0-0.3,0.2-0.4,0.5-0.4s0.5,0,0.5,0.3C-52.6,68.4-52.5,68.8-52.5,69.2z"/>
		<path class="st2" d="M-52.9,60.7c0,0.4-0.3,0.7-0.8,0.7s-0.8-0.2-0.8-0.7c-0.1-0.4,0.3-0.8,0.8-0.8S-52.9,60.2-52.9,60.7z"/>
	</g>
	<g>
		<path class="st3" d="M-51.8,67.3c-1.2,0-2.4,0-3.5,0c-0.4,0-0.3-0.1-0.2-0.4c0.3-1.2,0.6-2.3,0.9-3.5c0-0.1,0.3-0.3-0.1-0.4
			c-0.3,0-0.3,0.3-0.3,0.4c-0.2,0.8-0.4,1.6-0.6,2.3c-0.1,0.2,0,0.5-0.4,0.4c-0.3,0-0.4-0.3-0.3-0.6c0.2-0.7,0.4-1.3,0.5-2
			c0.4-1.9,0.6-1.8,2.9-1.7c0.6,0,0.9,0.3,1.1,0.8c0.3,1,0.5,1.9,0.8,2.9c0,0.2,0,0.4-0.2,0.5c-0.3,0.2-0.5,0.2-0.6-0.1
			c-0.2-0.9-0.4-1.7-0.6-2.5c0-0.1,0-0.4-0.3-0.3c-0.3,0-0.1,0.2-0.1,0.4C-52.5,64.7-52.1,66-51.8,67.3z"/>
		<path class="st3" d="M-53.9,69.2c0,0.4,0,0.8,0,1.1c0,0.3-0.1,0.4-0.4,0.4c-0.3,0-0.5-0.1-0.5-0.4c0-0.8,0-1.6,0-2.4
			c0-0.4,0.3-0.2,0.5-0.2s0.4,0,0.4,0.3C-53.9,68.4-53.9,68.8-53.9,69.2z"/>
		<path class="st3" d="M-52.5,69.2c0,0.4,0,0.7,0,1.1c0,0.3-0.1,0.5-0.5,0.5c-0.3,0-0.4-0.2-0.4-0.5c0-0.7,0-1.5,0-2.2
			c0-0.3,0.2-0.4,0.5-0.4s0.5,0,0.5,0.3C-52.6,68.4-52.5,68.8-52.5,69.2z"/>
		<path class="st3" d="M-52.9,60.7c0,0.4-0.3,0.7-0.8,0.7s-0.8-0.2-0.8-0.7c-0.1-0.4,0.3-0.8,0.8-0.8S-52.9,60.2-52.9,60.7z"/>
	</g>
</g>
<g>
	<g>
		<path class="st0" d="M-49,66.8c0-1.1,0-2.3,0-3.4c0-0.2,0.1-0.4-0.2-0.4s-0.2,0.3-0.2,0.4c0,0.8,0,1.6,0,2.4
			c0,0.2,0.2,0.5-0.2,0.5s-0.5-0.2-0.5-0.6c0-0.7,0-1.4,0-2c0-1.9,0.1-2,2.3-2c2.1,0,2.2,0.1,2.2,1.9c0,0.7,0,1.4,0,2
			c0,0.2,0,0.3-0.1,0.4s-0.3,0.2-0.4,0.2c-0.2,0-0.1-0.2-0.1-0.3c0-0.8,0-1.7,0-2.6c0-0.2,0.1-0.4-0.2-0.4s-0.2,0.2-0.2,0.4
			c0,2.2,0,4.3,0,6.5c0,0.1,0,0.3,0,0.4c0,0.3-0.1,0.5-0.4,0.5c-0.4,0-0.5-0.2-0.5-0.5c0-0.6,0-1.3,0-1.9c0-0.7,0-1.4,0-2.1
			c-0.2-0.1-0.1-0.3-0.4-0.3c-0.2,0-0.1,0.2-0.2,0.4c0,1.2,0,2.4,0,3.6c0,0.1,0,0.3,0,0.4c0,0.3-0.1,0.6-0.5,0.5
			c-0.4,0-0.4-0.3-0.4-0.5C-49,69.1-49,68-49,66.8z"/>
		<path class="st1" d="M-47.1,60.7c0,0.3-0.3,0.6-0.8,0.6c-0.4,0.1-0.8-0.3-0.7-0.7c0-0.4,0.2-0.7,0.7-0.7S-47.1,60.2-47.1,60.7z"/>
	</g>
	<g>
		<path class="st4" d="M-49,66.8c0-1.1,0-2.3,0-3.4c0-0.2,0.1-0.4-0.2-0.4s-0.2,0.3-0.2,0.4c0,0.8,0,1.6,0,2.4
			c0,0.2,0.2,0.5-0.2,0.5s-0.5-0.2-0.5-0.6c0-0.7,0-1.4,0-2c0-1.9,0.1-2,2.3-2c2.1,0,2.2,0.1,2.2,1.9c0,0.7,0,1.4,0,2
			c0,0.2,0,0.3-0.1,0.4s-0.3,0.2-0.4,0.2c-0.2,0-0.1-0.2-0.1-0.3c0-0.8,0-1.7,0-2.6c0-0.2,0.1-0.4-0.2-0.4s-0.2,0.2-0.2,0.4
			c0,2.2,0,4.3,0,6.5c0,0.1,0,0.3,0,0.4c0,0.3-0.1,0.5-0.4,0.5c-0.4,0-0.5-0.2-0.5-0.5c0-0.6,0-1.3,0-1.9c0-0.7,0-1.4,0-2.1
			c-0.2-0.1-0.1-0.3-0.4-0.3c-0.2,0-0.1,0.2-0.2,0.4c0,1.2,0,2.4,0,3.6c0,0.1,0,0.3,0,0.4c0,0.3-0.1,0.6-0.5,0.5
			c-0.4,0-0.4-0.3-0.4-0.5C-49,69.1-49,68-49,66.8z"/>
		<path class="st4" d="M-47.1,60.7c0,0.3-0.3,0.6-0.8,0.6c-0.4,0.1-0.8-0.3-0.7-0.7c0-0.4,0.2-0.7,0.7-0.7S-47.1,60.2-47.1,60.7z"/>
	</g>
	<g>
		<path class="st5" d="M-49,66.8c0-1.1,0-2.3,0-3.4c0-0.2,0.1-0.4-0.2-0.4s-0.2,0.3-0.2,0.4c0,0.8,0,1.6,0,2.4
			c0,0.2,0.2,0.5-0.2,0.5s-0.5-0.2-0.5-0.6c0-0.7,0-1.4,0-2c0-1.9,0.1-2,2.3-2c2.1,0,2.2,0.1,2.2,1.9c0,0.7,0,1.4,0,2
			c0,0.2,0,0.3-0.1,0.4s-0.3,0.2-0.4,0.2c-0.2,0-0.1-0.2-0.1-0.3c0-0.8,0-1.7,0-2.6c0-0.2,0.1-0.4-0.2-0.4s-0.2,0.2-0.2,0.4
			c0,2.2,0,4.3,0,6.5c0,0.1,0,0.3,0,0.4c0,0.3-0.1,0.5-0.4,0.5c-0.4,0-0.5-0.2-0.5-0.5c0-0.6,0-1.3,0-1.9c0-0.7,0-1.4,0-2.1
			c-0.2-0.1-0.1-0.3-0.4-0.3c-0.2,0-0.1,0.2-0.2,0.4c0,1.2,0,2.4,0,3.6c0,0.1,0,0.3,0,0.4c0,0.3-0.1,0.6-0.5,0.5
			c-0.4,0-0.4-0.3-0.4-0.5C-49,69.1-49,68-49,66.8z"/>
		<path class="st5" d="M-47.1,60.7c0,0.3-0.3,0.6-0.8,0.6c-0.4,0.1-0.8-0.3-0.7-0.7c0-0.4,0.2-0.7,0.7-0.7S-47.1,60.2-47.1,60.7z"/>
	</g>
</g>
</svg>
