<?xml version="1.0" encoding="utf-8"?>
<!-- Generator: Adobe Illustrator 19.1.0, SVG Export Plug-In . SVG Version: 6.00 Build 0)  -->
<svg version="1.1" xmlns="http://www.w3.org/2000/svg" xmlns:xlink="http://www.w3.org/1999/xlink" x="0px" y="0px"
	 viewBox="-56 57 15 15" style="enable-background:new -56 57 15 15;" xml:space="preserve">
<style type="text/css">
	.st0{display:none;}
	.st1{display:inline;}
	.st2{fill:#010101;}
	.st3{fill:#020202;}
	.st4{fill:#85E664;}
	.st5{fill:none;stroke:#85E664;stroke-width:0.1204;}
	.st6{fill:#6633FF;}
	.st7{fill:none;stroke:#6633FF;stroke-width:0.1233;}
	.st8{fill:none;stroke:#6633FF;stroke-width:0.1204;}
	.st9{fill:none;stroke:#85E664;stroke-width:0.1233;}
</style>
<g id="Ebene_2" class="st0">
	<g class="st1">
		<g>
			<path d="M-49.7,66.4c-1.2,0-2.4,0-3.5,0c-0.4,0-0.3-0.1-0.2-0.4c0.3-1.2,0.6-2.3,0.9-3.5c0-0.1,0.3-0.3-0.1-0.4
				c-0.3,0-0.3,0.3-0.3,0.4c-0.2,0.8-0.4,1.6-0.6,2.3c-0.1,0.2,0,0.5-0.4,0.4c-0.3,0-0.4-0.3-0.3-0.6c0.2-0.7,0.4-1.3,0.5-2
				c0.4-1.9,0.6-1.8,2.9-1.7c0.6,0,0.9,0.3,1.1,0.8c0.3,1,0.5,1.9,0.8,2.9c0,0.2,0,0.4-0.2,0.5c-0.3,0.2-0.5,0.2-0.6-0.1
				c-0.2-0.9-0.4-1.7-0.6-2.5c0-0.1,0-0.4-0.3-0.3c-0.3,0-0.1,0.2-0.1,0.4C-50.4,63.8-50,65.2-49.7,66.4z"/>
			<path class="st2" d="M-51.8,68.4c0,0.4,0,0.8,0,1.1c0,0.3-0.1,0.4-0.4,0.4s-0.5-0.1-0.5-0.4c0-0.8,0-1.6,0-2.4
				c0-0.4,0.3-0.2,0.5-0.2s0.4,0,0.4,0.3C-51.8,67.6-51.8,68.1-51.8,68.4z"/>
			<path class="st2" d="M-50.4,68.4c0,0.4,0,0.7,0,1.1c0,0.3-0.1,0.5-0.5,0.5c-0.3,0-0.4-0.2-0.4-0.5c0-0.7,0-1.5,0-2.2
				c0-0.3,0.2-0.4,0.5-0.4s0.5,0,0.5,0.3C-50.5,67.6-50.4,68.1-50.4,68.4z"/>
			<path class="st3" d="M-50.8,59.8c0,0.4-0.3,0.7-0.8,0.7s-0.8-0.2-0.8-0.7c-0.1-0.4,0.3-0.8,0.8-0.8S-50.8,59.3-50.8,59.8z"/>
		</g>
		<g>
			<path class="st4" d="M-49.7,66.4c-1.2,0-2.4,0-3.5,0c-0.4,0-0.3-0.1-0.2-0.4c0.3-1.2,0.6-2.3,0.9-3.5c0-0.1,0.3-0.3-0.1-0.4
				c-0.3,0-0.3,0.3-0.3,0.4c-0.2,0.8-0.4,1.6-0.6,2.3c-0.1,0.2,0,0.5-0.4,0.4c-0.3,0-0.4-0.3-0.3-0.6c0.2-0.7,0.4-1.3,0.5-2
				c0.4-1.9,0.6-1.8,2.9-1.7c0.6,0,0.9,0.3,1.1,0.8c0.3,1,0.5,1.9,0.8,2.9c0,0.2,0,0.4-0.2,0.5c-0.3,0.2-0.5,0.2-0.6-0.1
				c-0.2-0.9-0.4-1.7-0.6-2.5c0-0.1,0-0.4-0.3-0.3c-0.3,0-0.1,0.2-0.1,0.4C-50.4,63.8-50,65.2-49.7,66.4z"/>
			<path class="st4" d="M-51.8,68.4c0,0.4,0,0.8,0,1.1c0,0.3-0.1,0.4-0.4,0.4s-0.5-0.1-0.5-0.4c0-0.8,0-1.6,0-2.4
				c0-0.4,0.3-0.2,0.5-0.2s0.4,0,0.4,0.3C-51.8,67.6-51.8,68.1-51.8,68.4z"/>
			<path class="st4" d="M-50.4,68.4c0,0.4,0,0.7,0,1.1c0,0.3-0.1,0.5-0.5,0.5c-0.3,0-0.4-0.2-0.4-0.5c0-0.7,0-1.5,0-2.2
				c0-0.3,0.2-0.4,0.5-0.4s0.5,0,0.5,0.3C-50.5,67.6-50.4,68.1-50.4,68.4z"/>
			<path class="st4" d="M-50.8,59.8c0,0.4-0.3,0.7-0.8,0.7s-0.8-0.2-0.8-0.7c-0.1-0.4,0.3-0.8,0.8-0.8S-50.8,59.3-50.8,59.8z"/>
		</g>
		<g>
			<path class="st5" d="M-49.7,66.4c-1.2,0-2.4,0-3.5,0c-0.4,0-0.3-0.1-0.2-0.4c0.3-1.2,0.6-2.3,0.9-3.5c0-0.1,0.3-0.3-0.1-0.4
				c-0.3,0-0.3,0.3-0.3,0.4c-0.2,0.8-0.4,1.6-0.6,2.3c-0.1,0.2,0,0.5-0.4,0.4c-0.3,0-0.4-0.3-0.3-0.6c0.2-0.7,0.4-1.3,0.5-2
				c0.4-1.9,0.6-1.8,2.9-1.7c0.6,0,0.9,0.3,1.1,0.8c0.3,1,0.5,1.9,0.8,2.9c0,0.2,0,0.4-0.2,0.5c-0.3,0.2-0.5,0.2-0.6-0.1
				c-0.2-0.9-0.4-1.7-0.6-2.5c0-0.1,0-0.4-0.3-0.3c-0.3,0-0.1,0.2-0.1,0.4C-50.4,63.8-50,65.2-49.7,66.4z"/>
			<path class="st5" d="M-51.8,68.4c0,0.4,0,0.8,0,1.1c0,0.3-0.1,0.4-0.4,0.4s-0.5-0.1-0.5-0.4c0-0.8,0-1.6,0-2.4
				c0-0.4,0.3-0.2,0.5-0.2s0.4,0,0.4,0.3C-51.8,67.6-51.8,68.1-51.8,68.4z"/>
			<path class="st5" d="M-50.4,68.4c0,0.4,0,0.7,0,1.1c0,0.3-0.1,0.5-0.5,0.5c-0.3,0-0.4-0.2-0.4-0.5c0-0.7,0-1.5,0-2.2
				c0-0.3,0.2-0.4,0.5-0.4s0.5,0,0.5,0.3C-50.5,67.6-50.4,68.1-50.4,68.4z"/>
			<path class="st5" d="M-50.8,59.8c0,0.4-0.3,0.7-0.8,0.7s-0.8-0.2-0.8-0.7c-0.1-0.4,0.3-0.8,0.8-0.8S-50.8,59.3-50.8,59.8z"/>
		</g>
	</g>
	<g class="st1">
		<g>
			<path class="st2" d="M-45.9,65.9c0-1.1,0-2.3,0-3.4c0-0.2,0.1-0.4-0.2-0.4s-0.2,0.3-0.2,0.4c0,0.8,0,1.6,0,2.4
				c0,0.2,0.2,0.5-0.2,0.5s-0.5-0.2-0.5-0.6c0-0.7,0-1.4,0-2c0-1.9,0.1-2,2.3-2c2.1,0,2.2,0.1,2.2,1.9c0,0.7,0,1.4,0,2
				c0,0.2,0,0.3-0.1,0.4s-0.3,0.2-0.4,0.2c-0.2,0-0.1-0.2-0.1-0.3c0-0.8,0-1.7,0-2.6c0-0.2,0.1-0.4-0.2-0.4s-0.2,0.2-0.2,0.4
				c0,2.2,0,4.3,0,6.5c0,0.1,0,0.3,0,0.4c0,0.3-0.1,0.5-0.4,0.5c-0.4,0-0.5-0.2-0.5-0.5c0-0.6,0-1.3,0-1.9c0-0.7,0-1.4,0-2.1
				c-0.2-0.1-0.1-0.3-0.4-0.3c-0.2,0-0.1,0.2-0.2,0.4c0,1.2,0,2.4,0,3.6c0,0.1,0,0.3,0,0.4c0,0.3-0.1,0.6-0.5,0.5
				c-0.4,0-0.4-0.3-0.4-0.5C-45.9,68.2-45.9,67.1-45.9,65.9z"/>
			<path class="st3" d="M-44,59.8c0,0.3-0.3,0.6-0.8,0.6c-0.4,0.1-0.8-0.3-0.7-0.7c0-0.4,0.2-0.7,0.7-0.7S-44,59.3-44,59.8z"/>
		</g>
		<g>
			<path class="st6" d="M-45.9,65.9c0-1.1,0-2.3,0-3.4c0-0.2,0.1-0.4-0.2-0.4s-0.2,0.3-0.2,0.4c0,0.8,0,1.6,0,2.4
				c0,0.2,0.2,0.5-0.2,0.5s-0.5-0.2-0.5-0.6c0-0.7,0-1.4,0-2c0-1.9,0.1-2,2.3-2c2.1,0,2.2,0.1,2.2,1.9c0,0.7,0,1.4,0,2
				c0,0.2,0,0.3-0.1,0.4s-0.3,0.2-0.4,0.2c-0.2,0-0.1-0.2-0.1-0.3c0-0.8,0-1.7,0-2.6c0-0.2,0.1-0.4-0.2-0.4s-0.2,0.2-0.2,0.4
				c0,2.2,0,4.3,0,6.5c0,0.1,0,0.3,0,0.4c0,0.3-0.1,0.5-0.4,0.5c-0.4,0-0.5-0.2-0.5-0.5c0-0.6,0-1.3,0-1.9c0-0.7,0-1.4,0-2.1
				c-0.2-0.1-0.1-0.3-0.4-0.3c-0.2,0-0.1,0.2-0.2,0.4c0,1.2,0,2.4,0,3.6c0,0.1,0,0.3,0,0.4c0,0.3-0.1,0.6-0.5,0.5
				c-0.4,0-0.4-0.3-0.4-0.5C-45.9,68.2-45.9,67.1-45.9,65.9z"/>
			<path class="st6" d="M-44,59.8c0,0.3-0.3,0.6-0.8,0.6c-0.4,0.1-0.8-0.3-0.7-0.7c0-0.4,0.2-0.7,0.7-0.7S-44,59.3-44,59.8z"/>
		</g>
		<g>
			<path class="st7" d="M-45.9,65.9c0-1.1,0-2.3,0-3.4c0-0.2,0.1-0.4-0.2-0.4s-0.2,0.3-0.2,0.4c0,0.8,0,1.6,0,2.4
				c0,0.2,0.2,0.5-0.2,0.5s-0.5-0.2-0.5-0.6c0-0.7,0-1.4,0-2c0-1.9,0.1-2,2.3-2c2.1,0,2.2,0.1,2.2,1.9c0,0.7,0,1.4,0,2
				c0,0.2,0,0.3-0.1,0.4s-0.3,0.2-0.4,0.2c-0.2,0-0.1-0.2-0.1-0.3c0-0.8,0-1.7,0-2.6c0-0.2,0.1-0.4-0.2-0.4s-0.2,0.2-0.2,0.4
				c0,2.2,0,4.3,0,6.5c0,0.1,0,0.3,0,0.4c0,0.3-0.1,0.5-0.4,0.5c-0.4,0-0.5-0.2-0.5-0.5c0-0.6,0-1.3,0-1.9c0-0.7,0-1.4,0-2.1
				c-0.2-0.1-0.1-0.3-0.4-0.3c-0.2,0-0.1,0.2-0.2,0.4c0,1.2,0,2.4,0,3.6c0,0.1,0,0.3,0,0.4c0,0.3-0.1,0.6-0.5,0.5
				c-0.4,0-0.4-0.3-0.4-0.5C-45.9,68.2-45.9,67.1-45.9,65.9z"/>
			<path class="st7" d="M-44,59.8c0,0.3-0.3,0.6-0.8,0.6c-0.4,0.1-0.8-0.3-0.7-0.7c0-0.4,0.2-0.7,0.7-0.7S-44,59.3-44,59.8z"/>
		</g>
	</g>
</g>
<g id="Ebene_3">
	<g>
		<g>
			<path d="M-42.2,66.4c-1.2,0-2.4,0-3.5,0c-0.4,0-0.3-0.1-0.2-0.4c0.3-1.2,0.6-2.3,0.9-3.5c0-0.1,0.3-0.3-0.1-0.4
				c-0.3,0-0.3,0.3-0.3,0.4c-0.2,0.8-0.4,1.6-0.6,2.3c-0.1,0.2,0,0.5-0.4,0.4c-0.3,0-0.4-0.3-0.3-0.6c0.2-0.7,0.4-1.3,0.5-2
				c0.4-1.9,0.6-1.8,2.9-1.7c0.6,0,0.9,0.3,1.1,0.8c0.3,1,0.5,1.9,0.8,2.9c0,0.2,0,0.4-0.2,0.5c-0.3,0.2-0.5,0.2-0.6-0.1
				c-0.2-0.9-0.4-1.7-0.6-2.5c0-0.1,0-0.4-0.3-0.3c-0.3,0-0.1,0.2-0.1,0.4C-42.9,63.9-42.5,65.1-42.2,66.4z"/>
			<path class="st2" d="M-44.3,68.4c0,0.4,0,0.8,0,1.1c0,0.3-0.1,0.4-0.4,0.4c-0.3,0-0.5-0.1-0.5-0.4c0-0.8,0-1.6,0-2.4
				c0-0.4,0.3-0.2,0.5-0.2s0.4,0,0.4,0.3C-44.3,67.6-44.3,67.9-44.3,68.4z"/>
			<path class="st2" d="M-42.9,68.4c0,0.4,0,0.7,0,1.1c0,0.3-0.1,0.5-0.5,0.5c-0.3,0-0.4-0.2-0.4-0.5c0-0.7,0-1.5,0-2.2
				c0-0.3,0.2-0.4,0.5-0.4s0.5,0,0.5,0.3C-43,67.6-42.9,67.9-42.9,68.4z"/>
			<path class="st3" d="M-43.3,59.8c0,0.4-0.3,0.7-0.8,0.7s-0.8-0.2-0.8-0.7c-0.1-0.4,0.3-0.8,0.8-0.8S-43.3,59.3-43.3,59.8z"/>
		</g>
		<g>
			<path class="st6" d="M-42.2,66.4c-1.2,0-2.4,0-3.5,0c-0.4,0-0.3-0.1-0.2-0.4c0.3-1.2,0.6-2.3,0.9-3.5c0-0.1,0.3-0.3-0.1-0.4
				c-0.3,0-0.3,0.3-0.3,0.4c-0.2,0.8-0.4,1.6-0.6,2.3c-0.1,0.2,0,0.5-0.4,0.4c-0.3,0-0.4-0.3-0.3-0.6c0.2-0.7,0.4-1.3,0.5-2
				c0.4-1.9,0.6-1.8,2.9-1.7c0.6,0,0.9,0.3,1.1,0.8c0.3,1,0.5,1.9,0.8,2.9c0,0.2,0,0.4-0.2,0.5c-0.3,0.2-0.5,0.2-0.6-0.1
				c-0.2-0.9-0.4-1.7-0.6-2.5c0-0.1,0-0.4-0.3-0.3c-0.3,0-0.1,0.2-0.1,0.4C-42.9,63.9-42.5,65.1-42.2,66.4z"/>
			<path class="st6" d="M-44.3,68.4c0,0.4,0,0.8,0,1.1c0,0.3-0.1,0.4-0.4,0.4c-0.3,0-0.5-0.1-0.5-0.4c0-0.8,0-1.6,0-2.4
				c0-0.4,0.3-0.2,0.5-0.2s0.4,0,0.4,0.3C-44.3,67.6-44.3,67.9-44.3,68.4z"/>
			<path class="st6" d="M-42.9,68.4c0,0.4,0,0.7,0,1.1c0,0.3-0.1,0.5-0.5,0.5c-0.3,0-0.4-0.2-0.4-0.5c0-0.7,0-1.5,0-2.2
				c0-0.3,0.2-0.4,0.5-0.4s0.5,0,0.5,0.3C-43,67.6-42.9,67.9-42.9,68.4z"/>
			<path class="st6" d="M-43.3,59.8c0,0.4-0.3,0.7-0.8,0.7s-0.8-0.2-0.8-0.7c-0.1-0.4,0.3-0.8,0.8-0.8S-43.3,59.3-43.3,59.8z"/>
		</g>
		<g>
			<path class="st8" d="M-42.2,66.4c-1.2,0-2.4,0-3.5,0c-0.4,0-0.3-0.1-0.2-0.4c0.3-1.2,0.6-2.3,0.9-3.5c0-0.1,0.3-0.3-0.1-0.4
				c-0.3,0-0.3,0.3-0.3,0.4c-0.2,0.8-0.4,1.6-0.6,2.3c-0.1,0.2,0,0.5-0.4,0.4c-0.3,0-0.4-0.3-0.3-0.6c0.2-0.7,0.4-1.3,0.5-2
				c0.4-1.9,0.6-1.8,2.9-1.7c0.6,0,0.9,0.3,1.1,0.8c0.3,1,0.5,1.9,0.8,2.9c0,0.2,0,0.4-0.2,0.5c-0.3,0.2-0.5,0.2-0.6-0.1
				c-0.2-0.9-0.4-1.7-0.6-2.5c0-0.1,0-0.4-0.3-0.3c-0.3,0-0.1,0.2-0.1,0.4C-42.9,63.9-42.5,65.1-42.2,66.4z"/>
			<path class="st8" d="M-44.3,68.4c0,0.4,0,0.8,0,1.1c0,0.3-0.1,0.4-0.4,0.4c-0.3,0-0.5-0.1-0.5-0.4c0-0.8,0-1.6,0-2.4
				c0-0.4,0.3-0.2,0.5-0.2s0.4,0,0.4,0.3C-44.3,67.6-44.3,67.9-44.3,68.4z"/>
			<path class="st8" d="M-42.9,68.4c0,0.4,0,0.7,0,1.1c0,0.3-0.1,0.5-0.5,0.5c-0.3,0-0.4-0.2-0.4-0.5c0-0.7,0-1.5,0-2.2
				c0-0.3,0.2-0.4,0.5-0.4s0.5,0,0.5,0.3C-43,67.6-42.9,67.9-42.9,68.4z"/>
			<path class="st8" d="M-43.3,59.8c0,0.4-0.3,0.7-0.8,0.7s-0.8-0.2-0.8-0.7c-0.1-0.4,0.3-0.8,0.8-0.8S-43.3,59.3-43.3,59.8z"/>
		</g>
	</g>
	<g>
		<g>
			<path class="st2" d="M-53.4,65.9c0-1.1,0-2.3,0-3.4c0-0.2,0.1-0.4-0.2-0.4s-0.2,0.3-0.2,0.4c0,0.8,0,1.6,0,2.4
				c0,0.2,0.2,0.5-0.2,0.5s-0.5-0.2-0.5-0.6c0-0.7,0-1.4,0-2c0-1.9,0.1-2,2.3-2c2.1,0,2.2,0.1,2.2,1.9c0,0.7,0,1.4,0,2
				c0,0.2,0,0.3-0.1,0.4s-0.3,0.2-0.4,0.2c-0.2,0-0.1-0.2-0.1-0.3c0-0.8,0-1.7,0-2.6c0-0.2,0.1-0.4-0.2-0.4s-0.2,0.2-0.2,0.4
				c0,2.2,0,4.3,0,6.5c0,0.1,0,0.3,0,0.4c0,0.3-0.1,0.5-0.4,0.5c-0.4,0-0.5-0.2-0.5-0.5c0-0.6,0-1.3,0-1.9c0-0.7,0-1.4,0-2.1
				c-0.2-0.1-0.1-0.3-0.4-0.3c-0.2,0-0.1,0.2-0.2,0.4c0,1.2,0,2.4,0,3.6c0,0.1,0,0.3,0,0.4c0,0.3-0.1,0.6-0.5,0.5
				c-0.4,0-0.4-0.3-0.4-0.5C-53.4,68.2-53.4,67.1-53.4,65.9z"/>
			<path class="st3" d="M-51.5,59.8c0,0.3-0.3,0.6-0.8,0.6c-0.4,0.1-0.8-0.3-0.7-0.7c0-0.4,0.2-0.7,0.7-0.7S-51.5,59.3-51.5,59.8z"
				/>
		</g>
		<g>
			<path class="st4" d="M-53.4,65.9c0-1.1,0-2.3,0-3.4c0-0.2,0.1-0.4-0.2-0.4s-0.2,0.3-0.2,0.4c0,0.8,0,1.6,0,2.4
				c0,0.2,0.2,0.5-0.2,0.5s-0.5-0.2-0.5-0.6c0-0.7,0-1.4,0-2c0-1.9,0.1-2,2.3-2c2.1,0,2.2,0.1,2.2,1.9c0,0.7,0,1.4,0,2
				c0,0.2,0,0.3-0.1,0.4s-0.3,0.2-0.4,0.2c-0.2,0-0.1-0.2-0.1-0.3c0-0.8,0-1.7,0-2.6c0-0.2,0.1-0.4-0.2-0.4s-0.2,0.2-0.2,0.4
				c0,2.2,0,4.3,0,6.5c0,0.1,0,0.3,0,0.4c0,0.3-0.1,0.5-0.4,0.5c-0.4,0-0.5-0.2-0.5-0.5c0-0.6,0-1.3,0-1.9c0-0.7,0-1.4,0-2.1
				c-0.2-0.1-0.1-0.3-0.4-0.3c-0.2,0-0.1,0.2-0.2,0.4c0,1.2,0,2.4,0,3.6c0,0.1,0,0.3,0,0.4c0,0.3-0.1,0.6-0.5,0.5
				c-0.4,0-0.4-0.3-0.4-0.5C-53.4,68.2-53.4,67.1-53.4,65.9z"/>
			<path class="st4" d="M-51.5,59.8c0,0.3-0.3,0.6-0.8,0.6c-0.4,0.1-0.8-0.3-0.7-0.7c0-0.4,0.2-0.7,0.7-0.7S-51.5,59.3-51.5,59.8z"
				/>
		</g>
		<g>
			<path class="st9" d="M-53.4,65.9c0-1.1,0-2.3,0-3.4c0-0.2,0.1-0.4-0.2-0.4s-0.2,0.3-0.2,0.4c0,0.8,0,1.6,0,2.4
				c0,0.2,0.2,0.5-0.2,0.5s-0.5-0.2-0.5-0.6c0-0.7,0-1.4,0-2c0-1.9,0.1-2,2.3-2c2.1,0,2.2,0.1,2.2,1.9c0,0.7,0,1.4,0,2
				c0,0.2,0,0.3-0.1,0.4s-0.3,0.2-0.4,0.2c-0.2,0-0.1-0.2-0.1-0.3c0-0.8,0-1.7,0-2.6c0-0.2,0.1-0.4-0.2-0.4s-0.2,0.2-0.2,0.4
				c0,2.2,0,4.3,0,6.5c0,0.1,0,0.3,0,0.4c0,0.3-0.1,0.5-0.4,0.5c-0.4,0-0.5-0.2-0.5-0.5c0-0.6,0-1.3,0-1.9c0-0.7,0-1.4,0-2.1
				c-0.2-0.1-0.1-0.3-0.4-0.3c-0.2,0-0.1,0.2-0.2,0.4c0,1.2,0,2.4,0,3.6c0,0.1,0,0.3,0,0.4c0,0.3-0.1,0.6-0.5,0.5
				c-0.4,0-0.4-0.3-0.4-0.5C-53.4,68.2-53.4,67.1-53.4,65.9z"/>
			<path class="st9" d="M-51.5,59.8c0,0.3-0.3,0.6-0.8,0.6c-0.4,0.1-0.8-0.3-0.7-0.7c0-0.4,0.2-0.7,0.7-0.7S-51.5,59.3-51.5,59.8z"
				/>
		</g>
	</g>
</g>
<g id="Ebene_1" class="st0">
	<g class="st1">
		<g>
			<path class="st2" d="M-45.9,65.9c0-1.1,0-2.3,0-3.4c0-0.2,0.1-0.4-0.2-0.4s-0.2,0.3-0.2,0.4c0,0.8,0,1.6,0,2.4
				c0,0.2,0.2,0.5-0.2,0.5s-0.5-0.2-0.5-0.6c0-0.7,0-1.4,0-2c0-1.9,0.1-2,2.3-2c2.1,0,2.2,0.1,2.2,1.9c0,0.7,0,1.4,0,2
				c0,0.2,0,0.3-0.1,0.4s-0.3,0.2-0.4,0.2c-0.2,0-0.1-0.2-0.1-0.3c0-0.8,0-1.7,0-2.6c0-0.2,0.1-0.4-0.2-0.4s-0.2,0.2-0.2,0.4
				c0,2.2,0,4.3,0,6.5c0,0.1,0,0.3,0,0.4c0,0.3-0.1,0.5-0.4,0.5c-0.4,0-0.5-0.2-0.5-0.5c0-0.6,0-1.3,0-1.9c0-0.7,0-1.4,0-2.1
				c-0.2-0.1-0.1-0.3-0.4-0.3c-0.2,0-0.1,0.2-0.2,0.4c0,1.2,0,2.4,0,3.6c0,0.1,0,0.3,0,0.4c0,0.3-0.1,0.6-0.5,0.5
				c-0.4,0-0.4-0.3-0.4-0.5C-45.9,68.2-45.9,67.1-45.9,65.9z"/>
			<path class="st3" d="M-44,59.8c0,0.3-0.3,0.6-0.8,0.6c-0.4,0.1-0.8-0.3-0.7-0.7c0-0.4,0.2-0.7,0.7-0.7S-44,59.3-44,59.8z"/>
		</g>
		<g>
			<path class="st4" d="M-45.9,65.9c0-1.1,0-2.3,0-3.4c0-0.2,0.1-0.4-0.2-0.4s-0.2,0.3-0.2,0.4c0,0.8,0,1.6,0,2.4
				c0,0.2,0.2,0.5-0.2,0.5s-0.5-0.2-0.5-0.6c0-0.7,0-1.4,0-2c0-1.9,0.1-2,2.3-2c2.1,0,2.2,0.1,2.2,1.9c0,0.7,0,1.4,0,2
				c0,0.2,0,0.3-0.1,0.4s-0.3,0.2-0.4,0.2c-0.2,0-0.1-0.2-0.1-0.3c0-0.8,0-1.7,0-2.6c0-0.2,0.1-0.4-0.2-0.4s-0.2,0.2-0.2,0.4
				c0,2.2,0,4.3,0,6.5c0,0.1,0,0.3,0,0.4c0,0.3-0.1,0.5-0.4,0.5c-0.4,0-0.5-0.2-0.5-0.5c0-0.6,0-1.3,0-1.9c0-0.7,0-1.4,0-2.1
				c-0.2-0.1-0.1-0.3-0.4-0.3c-0.2,0-0.1,0.2-0.2,0.4c0,1.2,0,2.4,0,3.6c0,0.1,0,0.3,0,0.4c0,0.3-0.1,0.6-0.5,0.5
				c-0.4,0-0.4-0.3-0.4-0.5C-45.9,68.2-45.9,67.1-45.9,65.9z"/>
			<path class="st4" d="M-44,59.8c0,0.3-0.3,0.6-0.8,0.6c-0.4,0.1-0.8-0.3-0.7-0.7c0-0.4,0.2-0.7,0.7-0.7S-44,59.3-44,59.8z"/>
		</g>
		<g>
			<path class="st9" d="M-45.9,65.9c0-1.1,0-2.3,0-3.4c0-0.2,0.1-0.4-0.2-0.4s-0.2,0.3-0.2,0.4c0,0.8,0,1.6,0,2.4
				c0,0.2,0.2,0.5-0.2,0.5s-0.5-0.2-0.5-0.6c0-0.7,0-1.4,0-2c0-1.9,0.1-2,2.3-2c2.1,0,2.2,0.1,2.2,1.9c0,0.7,0,1.4,0,2
				c0,0.2,0,0.3-0.1,0.4s-0.3,0.2-0.4,0.2c-0.2,0-0.1-0.2-0.1-0.3c0-0.8,0-1.7,0-2.6c0-0.2,0.1-0.4-0.2-0.4s-0.2,0.2-0.2,0.4
				c0,2.2,0,4.3,0,6.5c0,0.1,0,0.3,0,0.4c0,0.3-0.1,0.5-0.4,0.5c-0.4,0-0.5-0.2-0.5-0.5c0-0.6,0-1.3,0-1.9c0-0.7,0-1.4,0-2.1
				c-0.2-0.1-0.1-0.3-0.4-0.3c-0.2,0-0.1,0.2-0.2,0.4c0,1.2,0,2.4,0,3.6c0,0.1,0,0.3,0,0.4c0,0.3-0.1,0.6-0.5,0.5
				c-0.4,0-0.4-0.3-0.4-0.5C-45.9,68.2-45.9,67.1-45.9,65.9z"/>
			<path class="st9" d="M-44,59.8c0,0.3-0.3,0.6-0.8,0.6c-0.4,0.1-0.8-0.3-0.7-0.7c0-0.4,0.2-0.7,0.7-0.7S-44,59.3-44,59.8z"/>
		</g>
	</g>
	<g class="st1">
		<g>
			<path d="M-49.7,66.5c-1.2,0-2.4,0-3.5,0c-0.4,0-0.3-0.1-0.2-0.4c0.3-1.2,0.6-2.3,0.9-3.5c0-0.1,0.3-0.3-0.1-0.4
				c-0.3,0-0.3,0.3-0.3,0.4c-0.2,0.8-0.4,1.6-0.6,2.3c-0.1,0.2,0,0.5-0.4,0.4c-0.3,0-0.4-0.3-0.3-0.6c0.2-0.7,0.4-1.3,0.5-2
				c0.4-1.9,0.6-1.8,2.9-1.7c0.6,0,0.9,0.3,1.1,0.8c0.3,1,0.5,1.9,0.8,2.9c0,0.2,0,0.4-0.2,0.5c-0.3,0.2-0.5,0.2-0.6-0.1
				c-0.2-0.9-0.4-1.7-0.6-2.5c0-0.1,0-0.4-0.3-0.3c-0.3,0-0.1,0.2-0.1,0.4C-50.4,63.9-50,65.3-49.7,66.5z"/>
			<path class="st2" d="M-51.8,68.4c0,0.4,0,0.8,0,1.1s-0.1,0.4-0.4,0.4s-0.5-0.1-0.5-0.4c0-0.8,0-1.6,0-2.4c0-0.4,0.3-0.2,0.5-0.2
				s0.4,0,0.4,0.3C-51.8,67.6-51.8,68.1-51.8,68.4z"/>
			<path class="st2" d="M-50.4,68.4c0,0.4,0,0.7,0,1.1c0,0.3-0.1,0.5-0.5,0.5c-0.3,0-0.4-0.2-0.4-0.5c0-0.7,0-1.5,0-2.2
				c0-0.3,0.2-0.4,0.5-0.4s0.5,0,0.5,0.3C-50.5,67.6-50.4,68.1-50.4,68.4z"/>
			<path class="st3" d="M-50.8,59.9c0,0.4-0.3,0.7-0.8,0.7s-0.8-0.2-0.8-0.7c-0.1-0.4,0.3-0.8,0.8-0.8S-50.8,59.4-50.8,59.9z"/>
		</g>
		<g>
			<path class="st4" d="M-49.7,66.5c-1.2,0-2.4,0-3.5,0c-0.4,0-0.3-0.1-0.2-0.4c0.3-1.2,0.6-2.3,0.9-3.5c0-0.1,0.3-0.3-0.1-0.4
				c-0.3,0-0.3,0.3-0.3,0.4c-0.2,0.8-0.4,1.6-0.6,2.3c-0.1,0.2,0,0.5-0.4,0.4c-0.3,0-0.4-0.3-0.3-0.6c0.2-0.7,0.4-1.3,0.5-2
				c0.4-1.9,0.6-1.8,2.9-1.7c0.6,0,0.9,0.3,1.1,0.8c0.3,1,0.5,1.9,0.8,2.9c0,0.2,0,0.4-0.2,0.5c-0.3,0.2-0.5,0.2-0.6-0.1
				c-0.2-0.9-0.4-1.7-0.6-2.5c0-0.1,0-0.4-0.3-0.3c-0.3,0-0.1,0.2-0.1,0.4C-50.4,63.9-50,65.3-49.7,66.5z"/>
			<path class="st4" d="M-51.8,68.4c0,0.4,0,0.8,0,1.1s-0.1,0.4-0.4,0.4s-0.5-0.1-0.5-0.4c0-0.8,0-1.6,0-2.4c0-0.4,0.3-0.2,0.5-0.2
				s0.4,0,0.4,0.3C-51.8,67.6-51.8,68.1-51.8,68.4z"/>
			<path class="st4" d="M-50.4,68.4c0,0.4,0,0.7,0,1.1c0,0.3-0.1,0.5-0.5,0.5c-0.3,0-0.4-0.2-0.4-0.5c0-0.7,0-1.5,0-2.2
				c0-0.3,0.2-0.4,0.5-0.4s0.5,0,0.5,0.3C-50.5,67.6-50.4,68.1-50.4,68.4z"/>
			<path class="st4" d="M-50.8,59.9c0,0.4-0.3,0.7-0.8,0.7s-0.8-0.2-0.8-0.7c-0.1-0.4,0.3-0.8,0.8-0.8S-50.8,59.4-50.8,59.9z"/>
		</g>
		<g>
			<path class="st5" d="M-49.7,66.5c-1.2,0-2.4,0-3.5,0c-0.4,0-0.3-0.1-0.2-0.4c0.3-1.2,0.6-2.3,0.9-3.5c0-0.1,0.3-0.3-0.1-0.4
				c-0.3,0-0.3,0.3-0.3,0.4c-0.2,0.8-0.4,1.6-0.6,2.3c-0.1,0.2,0,0.5-0.4,0.4c-0.3,0-0.4-0.3-0.3-0.6c0.2-0.7,0.4-1.3,0.5-2
				c0.4-1.9,0.6-1.8,2.9-1.7c0.6,0,0.9,0.3,1.1,0.8c0.3,1,0.5,1.9,0.8,2.9c0,0.2,0,0.4-0.2,0.5c-0.3,0.2-0.5,0.2-0.6-0.1
				c-0.2-0.9-0.4-1.7-0.6-2.5c0-0.1,0-0.4-0.3-0.3c-0.3,0-0.1,0.2-0.1,0.4C-50.4,63.9-50,65.3-49.7,66.5z"/>
			<path class="st5" d="M-51.8,68.4c0,0.4,0,0.8,0,1.1s-0.1,0.4-0.4,0.4s-0.5-0.1-0.5-0.4c0-0.8,0-1.6,0-2.4c0-0.4,0.3-0.2,0.5-0.2
				s0.4,0,0.4,0.3C-51.8,67.6-51.8,68.1-51.8,68.4z"/>
			<path class="st5" d="M-50.4,68.4c0,0.4,0,0.7,0,1.1c0,0.3-0.1,0.5-0.5,0.5c-0.3,0-0.4-0.2-0.4-0.5c0-0.7,0-1.5,0-2.2
				c0-0.3,0.2-0.4,0.5-0.4s0.5,0,0.5,0.3C-50.5,67.6-50.4,68.1-50.4,68.4z"/>
			<path class="st5" d="M-50.8,59.9c0,0.4-0.3,0.7-0.8,0.7s-0.8-0.2-0.8-0.7c-0.1-0.4,0.3-0.8,0.8-0.8S-50.8,59.4-50.8,59.9z"/>
		</g>
	</g>
</g>
</svg>
