<?xml version="1.0" encoding="utf-8"?>
<!-- Generator: Adobe Illustrator 19.1.0, SVG Export Plug-In . SVG Version: 6.00 Build 0)  -->
<svg version="1.1" id="Ebene_1" xmlns="http://www.w3.org/2000/svg" xmlns:xlink="http://www.w3.org/1999/xlink" x="0px" y="0px"
	 viewBox="0 0 339 200" xml:space="preserve">
<style type="text/css">
	.st0{fill:#613fc2;}
</style>
<g>
	<path class="st0" d="M170.5,41.7c-42.5,0-85-0.1-127.5,0.1c-4.4,0-6.1-0.9-6-5.7c0.3-12.8,0.1-12.8,12.8-12.8c82.5,0,165,0,247.4,0
		c6.5,0,6.5,0,6.5,6.4c0,12,0,12-11.9,12C251.5,41.7,211,41.7,170.5,41.7z"/>
	<path class="st0" d="M170.5,108.1c-42.7,0-85.3-0.1-128,0.1c-4.5,0-5.5-1.3-5.4-5.6C37.4,90,37.2,90,49.9,90
		c82.8,0,165.6,0,248.4-0.1c4.7,0,5.8,1.4,5.7,5.8c-0.3,12.4-0.1,12.4-12.5,12.4C251.2,108.1,210.8,108.1,170.5,108.1z"/>
	<path class="st0" d="M169.9,174.9c-42.3,0-84.6-0.1-126.9,0.1c-4.4,0-6-0.8-5.9-5.6c0.3-12.6,0.1-12.6,12.9-12.6
		c82.6,0,165.2,0,247.9-0.1c4.7,0,6.3,1,6.1,5.9c-0.4,12.3-0.1,12.3-12.6,12.3C250.9,174.9,210.4,174.9,169.9,174.9z"/>
</g>
</svg>
