<?xml version="1.0" encoding="utf-8"?>
<!-- Generator: Adobe Illustrator 16.0.0, SVG Export Plug-In . SVG Version: 6.00 Build 0)  -->
<!DOCTYPE svg PUBLIC "-//W3C//DTD SVG 1.1//EN" "http://www.w3.org/Graphics/SVG/1.1/DTD/svg11.dtd">
<svg version="1.1" xmlns="http://www.w3.org/2000/svg" xmlns:xlink="http://www.w3.org/1999/xlink" x="0px" y="0px" width="488px"
	 height="615px" viewBox="0 0 488 615" enable-background="new 0 0 488 615" xml:space="preserve">
<g id="Layer_1">
	<g id="completed" display="none">
		<g display="inline">
			<path fill="none" stroke="#FFFF66" stroke-width="10" stroke-linejoin="round" stroke-miterlimit="10" d="M156,50h240
				c22.1,0,40,17.9,40,40s-17.9,40-40,40H96c-22.1,0-40,17.9-40,40s17.9,40,40,40h300c22.1,0,40,17.9,40,40s-17.9,40-40,40H96
				c-22.1,0-40,17.9-40,40s17.9,40,40,40h300c22.1,0,40,17.9,40,40s-17.9,40-40,40H96c-22.1,0-40,17.9-40,40c0,22.1,17.9,40,40,40
				h300c22.1,0,40,17.9,40,40"/>
		</g>
		<g display="inline">
			<path fill="none" stroke="#D6D6D6" stroke-width="2" d="M156,50h240c22.1,0,40,17.9,40,40s-17.9,40-40,40H96
				c-22.1,0-40,17.9-40,40s17.9,40,40,40h300c22.1,0,40,17.9,40,40s-17.9,40-40,40H96c-22.1,0-40,17.9-40,40s17.9,40,40,40h300
				c22.1,0,40,17.9,40,40s-17.9,40-40,40H96c-22.1,0-40,17.9-40,40c0,22.1,17.9,40,40,40h300c22.1,0,40,17.9,40,40"/>
		</g>
	</g>
	<g>
		<rect x="310" y="515" fill="#D6D6D6" width="1" height="20"/>
		<g>
			<path fill="#A0A0A0" d="M324,516h-3l-0.3,2c0.2,0,0.4,0,0.6,0c0.6,0,1.2,0.1,1.7,0.4c0.6,0.4,1.1,1,1.1,2c0,1.5-1.2,2.7-2.9,2.7
				c-0.9,0-1.6-0.2-2-0.5l0.3-0.8c0.3,0.2,1,0.4,1.7,0.4c1,0,1.9-0.7,1.9-1.7s-0.7-1.7-2.3-1.7c-0.4,0-0.8,0-1.1,0.1l0.5-3.8h3.8
				L324,516L324,516z"/>
		</g>
	</g>
	<g>
		<rect x="429" y="577" fill="#D6D6D6" width="20" height="1"/>
		<g>
			<path fill="#A0A0A0" d="M448.3,564c0,2.6-1,4.1-2.7,4.1c-1.5,0-2.5-1.4-2.6-4c0-2.6,1.1-4,2.7-4
				C447.4,560.1,448.3,561.5,448.3,564z M444.1,564.1c0,2,0.6,3.2,1.6,3.2c1.1,0,1.6-1.2,1.6-3.2c0-1.9-0.5-3.2-1.6-3.2
				C444.8,560.9,444.1,562,444.1,564.1z"/>
		</g>
	</g>
	<g>
		<rect x="429" y="417" fill="#D6D6D6" width="20" height="1"/>
		<g>
			<path fill="#A0A0A0" d="M437.3,406.7c0.3,0.2,1,0.5,1.7,0.5c1.3,0,1.8-0.9,1.7-1.5c0-1.1-1-1.5-2-1.5h-0.6v-0.8h0.6
				c0.8,0,1.7-0.4,1.7-1.3c0-0.6-0.4-1.2-1.4-1.2c-0.6,0-1.2,0.3-1.5,0.5l-0.3-0.8c0.4-0.3,1.2-0.6,2-0.6c1.5,0,2.2,0.9,2.2,1.8
				c0,0.8-0.5,1.5-1.4,1.8l0,0c1,0.2,1.7,0.9,1.7,2c0,1.2-1,2.3-2.8,2.3c-0.9,0-1.6-0.3-2-0.5L437.3,406.7z"/>
			<path fill="#A0A0A0" d="M448.3,404c0,2.6-1,4.1-2.7,4.1c-1.5,0-2.5-1.4-2.6-4c0-2.6,1.1-4,2.7-4
				C447.4,400.1,448.3,401.5,448.3,404z M444.1,404.1c0,2,0.6,3.2,1.6,3.2c1.1,0,1.6-1.2,1.6-3.2c0-1.9-0.5-3.2-1.6-3.2
				C444.7,400.9,444.1,402,444.1,404.1z"/>
		</g>
	</g>
	<g>
		<rect x="429" y="254" fill="#D6D6D6" width="20" height="1"/>
		<g>
			<path fill="#A0A0A0" d="M441.5,237.9c-0.2,0-0.5,0-0.8,0c-1.6,0.3-2.5,1.5-2.7,2.8l0,0c0.4-0.5,1-0.9,1.9-0.9
				c1.4,0,2.3,1,2.3,2.5c0,1.4-1,2.7-2.6,2.7c-1.7,0-2.7-1.3-2.7-3.3c0-1.5,0.5-2.7,1.3-3.5c0.6-0.6,1.5-1,2.5-1.1
				c0.3,0,0.6-0.1,0.8-0.1L441.5,237.9L441.5,237.9z M441.2,242.4c0-1.1-0.6-1.8-1.6-1.8c-0.6,0-1.2,0.4-1.5,1
				c-0.1,0.1-0.1,0.3-0.1,0.5c0,1.3,0.6,2.2,1.7,2.2C440.6,244.3,441.2,243.5,441.2,242.4z"/>
			<path fill="#A0A0A0" d="M448.3,241c0,2.6-1,4.1-2.7,4.1c-1.5,0-2.5-1.4-2.6-4c0-2.6,1.1-4,2.7-4
				C447.4,237.1,448.3,238.5,448.3,241z M444.1,241.1c0,2,0.6,3.2,1.6,3.2c1.1,0,1.6-1.2,1.6-3.2c0-1.9-0.5-3.2-1.6-3.2
				C444.8,237.9,444.1,239,444.1,241.1z"/>
		</g>
	</g>
	<g>
		<rect x="429" y="94" fill="#D6D6D6" width="20" height="1"/>
		<g>
			<path fill="#A0A0A0" d="M437.6,84.2c0.2,0,0.5,0,0.8,0c0.6-0.1,1.2-0.3,1.6-0.7c0.5-0.5,0.9-1.1,1-2.1l0,0
				c-0.4,0.5-1,0.8-1.8,0.8c-1.4,0-2.3-1-2.3-2.4c0-1.5,1.1-2.8,2.6-2.8c1.6,0,2.6,1.3,2.6,3.3c0,1.7-0.6,2.9-1.3,3.6
				c-0.6,0.6-1.4,0.9-2.2,1c-0.4,0.1-0.7,0.1-1,0.1L437.6,84.2L437.6,84.2z M438,79.8c0,1,0.6,1.6,1.5,1.6c0.7,0,1.2-0.3,1.5-0.8
				c0.1-0.1,0.1-0.2,0.1-0.4c0-1.3-0.5-2.3-1.6-2.3C438.7,77.9,438,78.7,438,79.8z"/>
			<path fill="#A0A0A0" d="M448.3,81c0,2.6-1,4.1-2.7,4.1c-1.5,0-2.5-1.4-2.6-4c0-2.6,1.1-4,2.7-4C447.4,77.1,448.3,78.5,448.3,81z
				 M444.1,81.1c0,2,0.6,3.2,1.6,3.2c1.1,0,1.6-1.2,1.6-3.2c0-1.9-0.5-3.2-1.6-3.2C444.8,77.9,444.1,79,444.1,81.1z"/>
		</g>
	</g>
	<g>
		<rect x="27" y="497" fill="#D6D6D6" width="20" height="1"/>
		<g>
			<path fill="#A0A0A0" d="M29.2,482.1L29.2,482.1l-1.4,0.7l-0.2-0.8l1.7-0.9h0.9v7.9h-1V482.1L29.2,482.1z"/>
			<path fill="#A0A0A0" d="M37.8,482h-3l-0.3,2c0.2,0,0.4,0,0.6,0c0.6,0,1.2,0.1,1.7,0.4c0.6,0.4,1.1,1,1.1,2c0,1.5-1.2,2.7-2.9,2.7
				c-0.9,0-1.6-0.2-2-0.5l0.3-0.8c0.3,0.2,1,0.4,1.7,0.4c1,0,1.9-0.7,1.9-1.7s-0.7-1.7-2.3-1.7c-0.4,0-0.8,0-1.1,0.1l0.5-3.8h3.8
				V482z"/>
		</g>
	</g>
	<g>
		<rect x="27" y="336" fill="#D6D6D6" width="20" height="1"/>
		<g>
			<path fill="#A0A0A0" d="M31.3,328v-2.1h-3.7v-0.7l3.5-5h1.1v4.9h1.1v0.8h-1.1v2.1L31.3,328L31.3,328z M31.3,325v-2.6
				c0-0.4,0-0.8,0-1.2l0,0c-0.2,0.5-0.4,0.8-0.7,1.2l-1.9,2.7l0,0h2.6V325z"/>
			<path fill="#A0A0A0" d="M38.9,321h-3l-0.3,2c0.2,0,0.4,0,0.6,0c0.6,0,1.2,0.1,1.7,0.4c0.6,0.4,1.1,1,1.1,2c0,1.5-1.2,2.7-2.9,2.7
				c-0.9,0-1.6-0.2-2-0.5l0.3-0.8c0.3,0.2,1,0.4,1.7,0.4c1,0,1.9-0.7,1.9-1.7s-0.7-1.7-2.3-1.7c-0.4,0-0.8,0-1.1,0.1l0.5-3.8h3.8
				V321z"/>
		</g>
	</g>
	<g>
		<rect x="27" y="177" fill="#D6D6D6" width="20" height="1"/>
		<g>
			<path fill="#A0A0A0" d="M33.1,161.1v0.7l-3.4,7.2h-1.1l3.4-7l0,0h-3.8v-0.9H33.1z"/>
			<path fill="#A0A0A0" d="M38.9,162h-3l-0.3,2c0.2,0,0.4,0,0.6,0c0.6,0,1.2,0.1,1.7,0.4c0.6,0.4,1.1,1,1.1,2c0,1.5-1.2,2.7-2.9,2.7
				c-0.9,0-1.6-0.2-2-0.5l0.3-0.8c0.3,0.2,1,0.4,1.7,0.4c1,0,1.9-0.7,1.9-1.7s-0.7-1.7-2.3-1.7c-0.4,0-0.8,0-1.1,0.1l0.5-3.8h3.8
				C38.9,161.1,38.9,162,38.9,162z"/>
		</g>
	</g>
	<g>
		<rect x="168" y="515" fill="#D6D6D6" width="1" height="20"/>
		<g>
			<path fill="#A0A0A0" d="M178.7,516.2L178.7,516.2l-1.4,0.7l-0.2-0.8l1.7-0.9h0.9v7.7h-1V516.2L178.7,516.2z"/>
			<path fill="#A0A0A0" d="M187.7,519c0,2.6-1,4.1-2.7,4.1c-1.5,0-2.5-1.4-2.6-4c0-2.6,1.1-4,2.7-4
				C186.8,515.1,187.7,516.5,187.7,519z M183.5,519.1c0,2,0.6,3.2,1.6,3.2c1.1,0,1.6-1.2,1.6-3.2c0-1.9-0.5-3.2-1.6-3.2
				C184.2,515.9,183.5,517,183.5,519.1z"/>
		</g>
	</g>
	<g>
		<rect x="308" y="435" fill="#D6D6D6" width="1" height="20"/>
		<g>
			<path fill="#A0A0A0" d="M316.6,442.9v-0.6l0.8-0.8c2-1.9,2.9-2.9,2.9-4c0-0.8-0.4-1.5-1.5-1.5c-0.7,0-1.3,0.4-1.6,0.7l-0.3-0.7
				c0.5-0.5,1.3-0.8,2.2-0.8c1.7,0,2.4,1.1,2.4,2.3c0,1.4-1,2.6-2.7,4.2L318,442l0,0h3.5v0.9H316.6z"/>
			<path fill="#A0A0A0" d="M327.3,436.1h-3l-0.3,2c0.2,0,0.3,0,0.6,0c0.6,0,1.2,0.1,1.7,0.4c0.6,0.3,1.1,1,1.1,2
				c0,1.5-1.2,2.6-2.9,2.6c-0.8,0-1.6-0.2-1.9-0.5l0.3-0.8c0.3,0.2,1,0.4,1.7,0.4c1,0,1.8-0.6,1.8-1.7c0-1-0.7-1.7-2.2-1.7
				c-0.4,0-0.8,0-1.1,0.1l0.5-3.7h3.7L327.3,436.1L327.3,436.1z"/>
		</g>
	</g>
	<g>
		<rect x="168" y="435" fill="#D6D6D6" width="1" height="20"/>
		<g>
			<path fill="#A0A0A0" d="M176.5,442.9v-0.6l0.8-0.8c2-1.9,2.9-2.9,2.9-4c0-0.8-0.4-1.5-1.5-1.5c-0.7,0-1.3,0.4-1.6,0.7l-0.3-0.7
				c0.5-0.5,1.3-0.8,2.2-0.8c1.7,0,2.4,1.1,2.4,2.2c0,1.4-1,2.6-2.7,4.2L178,442l0,0h3.5v0.9H176.5z"/>
			<path fill="#A0A0A0" d="M187.8,439c0,2.6-1,4.1-2.7,4.1c-1.5,0-2.5-1.4-2.6-4c0-2.6,1.1-4,2.7-4
				C186.9,435.1,187.8,436.5,187.8,439z M183.6,439.1c0,2,0.6,3.2,1.6,3.2c1.1,0,1.6-1.2,1.6-3.2c0-1.9-0.5-3.2-1.6-3.2
				C184.2,435.9,183.6,437,183.6,439.1z"/>
		</g>
	</g>
	<g>
		<rect x="310" y="355" fill="#D6D6D6" width="1" height="20"/>
		<g>
			<path fill="#A0A0A0" d="M318.8,361.7c0.3,0.2,1,0.5,1.7,0.5c1.3,0,1.8-0.9,1.7-1.5c0-1.1-1-1.5-2-1.5h-0.6v-0.8h0.6
				c0.8,0,1.7-0.4,1.7-1.3c0-0.6-0.4-1.2-1.4-1.2c-0.6,0-1.2,0.3-1.5,0.5l-0.3-0.8c0.4-0.3,1.2-0.6,2-0.6c1.5,0,2.2,0.9,2.2,1.8
				c0,0.8-0.5,1.5-1.4,1.8l0,0c1,0.2,1.7,0.9,1.7,2c0,1.2-1,2.3-2.8,2.3c-0.9,0-1.6-0.3-2-0.5L318.8,361.7z"/>
			<path fill="#A0A0A0" d="M329.3,356.1h-3l-0.3,2c0.2,0,0.3,0,0.6,0c0.6,0,1.2,0.1,1.7,0.4c0.6,0.3,1.1,1,1.1,2
				c0,1.5-1.2,2.6-2.9,2.6c-0.8,0-1.6-0.2-1.9-0.5l0.3-0.8c0.3,0.2,1,0.4,1.7,0.4c1,0,1.8-0.6,1.8-1.7c0-1-0.7-1.7-2.2-1.7
				c-0.4,0-0.8,0-1.1,0.1l0.5-3.7h3.7L329.3,356.1L329.3,356.1z"/>
		</g>
	</g>
	<g>
		<rect x="168" y="355" fill="#D6D6D6" width="1" height="20"/>
		<g>
			<path fill="#A0A0A0" d="M179.8,362.9v-2.1h-3.6v-0.7l3.5-4.9h1.1v4.8h1.1v0.8h-1.1v2.1L179.8,362.9L179.8,362.9z M179.8,360v-2.6
				c0-0.4,0-0.8,0-1.2l0,0c-0.2,0.5-0.4,0.8-0.6,1.1l-1.9,2.6l0,0h2.5V360z"/>
			<path fill="#A0A0A0" d="M187.8,359c0,2.6-1,4.1-2.7,4.1c-1.5,0-2.5-1.4-2.6-4c0-2.6,1.1-4,2.7-4
				C186.9,355.1,187.8,356.5,187.8,359z M183.6,359.1c0,2,0.6,3.2,1.6,3.2c1.1,0,1.6-1.2,1.6-3.2c0-1.9-0.5-3.2-1.6-3.2
				C184.3,355.9,183.6,357,183.6,359.1z"/>
		</g>
	</g>
	<g>
		<rect x="308" y="275" fill="#D6D6D6" width="1" height="20"/>
		<g>
			<path fill="#A0A0A0" d="M321.2,276h-3l-0.3,2c0.2,0,0.4,0,0.6,0c0.6,0,1.2,0.1,1.7,0.4c0.6,0.4,1.1,1,1.1,2
				c0,1.5-1.2,2.7-2.9,2.7c-0.9,0-1.6-0.2-2-0.5l0.3-0.8c0.3,0.2,1,0.4,1.7,0.4c1,0,1.9-0.7,1.9-1.7s-0.7-1.7-2.3-1.7
				c-0.4,0-0.8,0-1.1,0.1l0.5-3.8h3.8L321.2,276L321.2,276z"/>
			<path fill="#A0A0A0" d="M327.4,276h-3l-0.3,2c0.2,0,0.4,0,0.6,0c0.6,0,1.2,0.1,1.7,0.4c0.6,0.4,1.1,1,1.1,2
				c0,1.5-1.2,2.7-2.9,2.7c-0.9,0-1.6-0.2-2-0.5l0.3-0.8c0.3,0.2,1,0.4,1.7,0.4c1,0,1.9-0.7,1.9-1.7s-0.7-1.7-2.3-1.7
				c-0.4,0-0.8,0-1.1,0.1l0.5-3.8h3.8L327.4,276L327.4,276z"/>
		</g>
	</g>
	<g>
		<rect x="168" y="275" fill="#D6D6D6" width="1" height="20"/>
		<g>
			<path fill="#A0A0A0" d="M181.2,276.1h-3l-0.3,2c0.2,0,0.3,0,0.6,0c0.6,0,1.2,0.1,1.7,0.4c0.6,0.3,1.1,1,1.1,2
				c0,1.5-1.2,2.6-2.9,2.6c-0.8,0-1.6-0.2-1.9-0.5l0.3-0.8c0.3,0.2,1,0.4,1.7,0.4c1,0,1.8-0.6,1.8-1.7c0-1-0.7-1.7-2.2-1.7
				c-0.4,0-0.8,0-1.1,0.1l0.5-3.7h3.7L181.2,276.1L181.2,276.1z"/>
			<path fill="#A0A0A0" d="M187.8,279c0,2.6-1,4.1-2.7,4.1c-1.5,0-2.5-1.4-2.6-4c0-2.6,1.1-4,2.7-4
				C186.9,275.1,187.8,276.5,187.8,279z M183.6,279.1c0,2,0.6,3.2,1.6,3.2c1.1,0,1.6-1.2,1.6-3.2c0-1.9-0.5-3.2-1.6-3.2
				C184.3,275.9,183.6,277,183.6,279.1z"/>
		</g>
	</g>
	<g>
		<rect x="310" y="195" fill="#D6D6D6" width="1" height="20"/>
		<g>
			<path fill="#A0A0A0" d="M323,195.9c-0.2,0-0.5,0-0.8,0c-1.6,0.3-2.5,1.5-2.7,2.8l0,0c0.4-0.5,1-0.9,1.9-0.9c1.4,0,2.3,1,2.3,2.5
				c0,1.4-1,2.7-2.6,2.7c-1.7,0-2.7-1.3-2.7-3.3c0-1.5,0.5-2.7,1.3-3.5c0.6-0.6,1.5-1,2.5-1.1c0.3,0,0.6-0.1,0.8-0.1L323,195.9
				L323,195.9z M322.7,200.4c0-1.1-0.6-1.8-1.6-1.8c-0.6,0-1.2,0.4-1.5,1c-0.1,0.1-0.1,0.3-0.1,0.5c0,1.3,0.6,2.2,1.7,2.2
				C322.1,202.3,322.7,201.5,322.7,200.4z"/>
			<path fill="#A0A0A0" d="M329.3,196.1h-3l-0.3,2c0.2,0,0.3,0,0.6,0c0.6,0,1.2,0.1,1.7,0.4c0.6,0.3,1.1,1,1.1,2
				c0,1.5-1.2,2.6-2.9,2.6c-0.8,0-1.6-0.2-1.9-0.5l0.3-0.8c0.3,0.2,1,0.4,1.7,0.4c1,0,1.8-0.6,1.8-1.7c0-1-0.7-1.7-2.2-1.7
				c-0.4,0-0.8,0-1.1,0.1l0.5-3.7h3.7L329.3,196.1L329.3,196.1z"/>
		</g>
	</g>
	<g>
		<rect x="168" y="195" fill="#D6D6D6" width="1" height="20"/>
		<g>
			<path fill="#A0A0A0" d="M181.5,195.2v0.7l-3.4,7H177l3.4-6.8l0,0h-3.8v-0.9H181.5L181.5,195.2z"/>
			<path fill="#A0A0A0" d="M187.8,199c0,2.6-1,4.1-2.7,4.1c-1.5,0-2.5-1.4-2.6-4c0-2.6,1.1-4,2.7-4
				C186.8,195.1,187.8,196.5,187.8,199z M183.6,199.1c0,2,0.6,3.2,1.6,3.2c1.1,0,1.6-1.2,1.6-3.2c0-1.9-0.5-3.2-1.6-3.2
				C184.2,195.9,183.6,197,183.6,199.1z"/>
		</g>
	</g>
	<g>
		<rect x="308" y="115" fill="#D6D6D6" width="1" height="20"/>
		<g>
			<path fill="#A0A0A0" d="M316.5,121c0-1,0.6-1.7,1.5-2.1l0,0c-0.9-0.4-1.2-1.1-1.2-1.7c0-1.2,1-2.1,2.4-2.1c1.5,0,2.2,0.9,2.2,1.9
				c0,0.7-0.3,1.4-1.3,1.8l0,0c1,0.4,1.6,1.1,1.6,2c0,1.3-1.2,2.2-2.6,2.2C317.5,123.1,316.5,122.1,316.5,121z M320.7,120.9
				c0-0.9-0.7-1.4-1.7-1.7c-0.9,0.3-1.4,0.9-1.4,1.6c0,0.8,0.6,1.5,1.5,1.5C320.1,122.3,320.7,121.7,320.7,120.9z M317.8,117.1
				c0,0.8,0.6,1.2,1.5,1.4c0.7-0.2,1.2-0.7,1.2-1.4c0-0.6-0.4-1.3-1.3-1.3C318.3,115.8,317.8,116.4,317.8,117.1z"/>
			<path fill="#A0A0A0" d="M327.3,116.1h-3l-0.3,2c0.2,0,0.3,0,0.6,0c0.6,0,1.2,0.1,1.7,0.4c0.6,0.3,1.1,1,1.1,2
				c0,1.5-1.2,2.6-2.9,2.6c-0.8,0-1.6-0.2-1.9-0.5l0.3-0.8c0.3,0.2,1,0.4,1.7,0.4c1,0,1.8-0.6,1.8-1.7c0-1-0.7-1.7-2.2-1.7
				c-0.4,0-0.8,0-1.1,0.1l0.5-3.7h3.7L327.3,116.1L327.3,116.1z"/>
		</g>
	</g>
	<g>
		<rect x="166" y="115" fill="#D6D6D6" width="1" height="20"/>
		<g>
			<path fill="#A0A0A0" d="M174.5,121c0-1,0.6-1.7,1.5-2.1l0,0c-0.9-0.4-1.2-1.1-1.2-1.7c0-1.2,1-2.1,2.4-2.1c1.5,0,2.2,0.9,2.2,1.9
				c0,0.7-0.3,1.4-1.3,1.8l0,0c1,0.4,1.6,1.1,1.6,2c0,1.3-1.2,2.2-2.6,2.2C175.4,123.1,174.5,122.1,174.5,121z M178.6,120.9
				c0-0.9-0.7-1.4-1.7-1.7c-0.9,0.3-1.4,0.9-1.4,1.6c0,0.8,0.6,1.5,1.5,1.5C178,122.3,178.6,121.7,178.6,120.9z M175.7,117.1
				c0,0.8,0.6,1.2,1.5,1.4c0.7-0.2,1.2-0.7,1.2-1.4c0-0.6-0.4-1.3-1.3-1.3C176.2,115.8,175.7,116.4,175.7,117.1z"/>
			<path fill="#A0A0A0" d="M185.8,119c0,2.6-1,4.1-2.7,4.1c-1.5,0-2.5-1.4-2.6-4c0-2.6,1.1-4,2.7-4
				C184.9,115.1,185.8,116.5,185.8,119z M181.6,119.1c0,2,0.6,3.2,1.6,3.2c1.1,0,1.6-1.2,1.6-3.2c0-1.9-0.5-3.2-1.6-3.2
				C182.3,115.9,181.6,117,181.6,119.1z"/>
		</g>
	</g>
	<g>
		<rect x="311" y="35" fill="#D6D6D6" width="1" height="20"/>
		<g>
			<path fill="#A0A0A0" d="M320.2,42.2c0.2,0,0.5,0,0.8,0c0.6-0.1,1.2-0.3,1.6-0.7c0.5-0.5,0.9-1.1,1-2.1l0,0
				c-0.4,0.5-1,0.8-1.8,0.8c-1.4,0-2.3-1-2.3-2.4c0-1.5,1.1-2.8,2.6-2.8c1.6,0,2.6,1.3,2.6,3.3c0,1.7-0.6,2.9-1.3,3.6
				c-0.6,0.6-1.4,0.9-2.2,1c-0.4,0.1-0.7,0.1-1,0.1L320.2,42.2L320.2,42.2z M320.6,37.8c0,1,0.6,1.6,1.5,1.6c0.7,0,1.2-0.3,1.5-0.8
				c0.1-0.1,0.1-0.2,0.1-0.4c0-1.3-0.5-2.3-1.6-2.3C321.2,35.9,320.6,36.7,320.6,37.8z"/>
			<path fill="#A0A0A0" d="M330.3,36.1h-3l-0.3,2c0.2,0,0.3,0,0.6,0c0.6,0,1.2,0.1,1.7,0.4c0.6,0.3,1.1,1,1.1,2
				c0,1.5-1.2,2.6-2.9,2.6c-0.8,0-1.6-0.2-1.9-0.5l0.3-0.8c0.3,0.2,1,0.4,1.7,0.4c1,0,1.8-0.6,1.8-1.7c0-1-0.7-1.7-2.2-1.7
				c-0.4,0-0.8,0-1.1,0.1l0.5-3.7h3.7L330.3,36.1L330.3,36.1z"/>
		</g>
	</g>
	<g>
		<rect x="169" y="35" fill="#D6D6D6" width="1" height="20"/>
		<g>
			<path fill="#A0A0A0" d="M179,36.2L179,36.2l-1.4,0.7l-0.2-0.8l1.7-0.9h0.9v7.7h-1V36.2L179,36.2z"/>
			<path fill="#A0A0A0" d="M188,39c0,2.6-1,4.1-2.7,4.1c-1.5,0-2.5-1.4-2.6-4c0-2.6,1.1-4,2.7-4C187,35.1,188,36.5,188,39z
				 M183.8,39.1c0,2,0.6,3.2,1.6,3.2c1.1,0,1.6-1.2,1.6-3.2c0-1.9-0.5-3.2-1.6-3.2C184.4,35.9,183.8,37,183.8,39.1z"/>
			<path fill="#A0A0A0" d="M194.1,39c0,2.6-1,4.1-2.7,4.1c-1.5,0-2.5-1.4-2.6-4c0-2.6,1.1-4,2.7-4C193.1,35.1,194.1,36.5,194.1,39z
				 M189.9,39.1c0,2,0.6,3.2,1.6,3.2c1.1,0,1.6-1.2,1.6-3.2c0-1.9-0.5-3.2-1.6-3.2C190.5,35.9,189.9,37,189.9,39.1z"/>
		</g>
	</g>
	<g id="guides">
	</g>
</g>
<g id="Ebene_2">
	<path fill="none" stroke="#000000" stroke-miterlimit="10" d="M428.1,575.2c0-22.1-17.7-40-39.8-40h-300c-22.1,0-40-17.9-40-40
		s17.9-40,40-40h300c22.1,0,40-17.9,40-40s-17.9-40-40-40h-300c-22.1,0-40-17.9-40-40s17.9-40,40-40h300c22.1,0,40-17.9,40-40
		s-17.9-40-40-40h-300c-22.1,0-40-17.9-40-40s17.9-40,40-40h300c22.1,0,40-17.9,40-40s-17.9-40-40-40H168.8"/>
</g>
</svg>
