<?xml version="1.0" encoding="utf-8"?>
<!-- Generator: Adobe Illustrator 16.0.0, SVG Export Plug-In . SVG Version: 6.00 Build 0)  -->
<!DOCTYPE svg PUBLIC "-//W3C//DTD SVG 1.1//EN" "http://www.w3.org/Graphics/SVG/1.1/DTD/svg11.dtd">
<svg version="1.1" xmlns="http://www.w3.org/2000/svg" xmlns:xlink="http://www.w3.org/1999/xlink" x="0px" y="0px" width="488px"
	 height="615px" viewBox="0 0 488 615" enable-background="new 0 0 488 615" xml:space="preserve">
<g id="Layer_1">
	<g id="completed" display="none">
		<g display="inline">
			<path fill="none" stroke="#FFFF66" stroke-width="10" stroke-linejoin="round" stroke-miterlimit="10" d="M156,50h240
				c22.092,0,40,17.908,40,40s-17.908,40-40,40H96c-22.092,0-40,17.908-40,40s17.908,40,40,40h300c22.092,0,40,17.908,40,40
				s-17.908,40-40,40H96c-22.092,0-40,17.908-40,40s17.908,40,40,40h300c22.092,0,40,17.908,40,40s-17.908,40-40,40H96
				c-22.092,0-40,17.908-40,40s17.908,40,40,40h300c22.092,0,40,17.908,40,40"/>
		</g>
		<g display="inline">
			<path fill="none" stroke="#D6D6D6" stroke-width="2" d="M156,50h240c22.092,0,40,17.908,40,40s-17.908,40-40,40H96
				c-22.092,0-40,17.908-40,40s17.908,40,40,40h300c22.092,0,40,17.908,40,40s-17.908,40-40,40H96c-22.092,0-40,17.908-40,40
				s17.908,40,40,40h300c22.092,0,40,17.908,40,40s-17.908,40-40,40H96c-22.092,0-40,17.908-40,40s17.908,40,40,40h300
				c22.092,0,40,17.908,40,40"/>
		</g>
	</g>
	<g>
		<rect x="310" y="515" fill="#D6D6D6" width="1" height="20"/>
		<g>
			<path fill="#666666" d="M323.398,515.814h-2.233l-0.225,1.504c0.135-0.019,0.261-0.036,0.478-0.036
				c0.45,0,0.899,0.099,1.26,0.314c0.459,0.262,0.838,0.766,0.838,1.504c0,1.144-0.91,1.998-2.179,1.998
				c-0.64,0-1.18-0.18-1.459-0.359l0.198-0.604c0.243,0.144,0.72,0.324,1.251,0.324c0.748,0,1.387-0.486,1.387-1.27
				c-0.009-0.756-0.513-1.296-1.684-1.296c-0.333,0-0.594,0.035-0.811,0.062l0.379-2.809h2.8V515.814z"/>
		</g>
	</g>
	<g>
		<rect x="429" y="577" fill="#D6D6D6" width="20" height="1"/>
		<g>
			<path fill="#666666" d="M448.677,564.011c0,1.99-0.738,3.088-2.034,3.088c-1.144,0-1.918-1.071-1.936-3.007
				c0-1.962,0.846-3.043,2.034-3.043C447.975,561.049,448.677,562.147,448.677,564.011z M445.499,564.102
				c0,1.521,0.469,2.386,1.188,2.386c0.811,0,1.197-0.945,1.197-2.44c0-1.44-0.369-2.386-1.188-2.386
				C446.003,561.661,445.499,562.508,445.499,564.102z"/>
		</g>
	</g>
	<g>
		<rect x="429" y="417" fill="#D6D6D6" width="20" height="1"/>
		<g>
			<path fill="#666666" d="M439.594,406.091c0.226,0.144,0.748,0.369,1.297,0.369c1.018,0,1.332-0.648,1.323-1.135
				c-0.009-0.819-0.747-1.17-1.513-1.17h-0.44v-0.595h0.44c0.576,0,1.306-0.297,1.306-0.99c0-0.468-0.297-0.882-1.026-0.882
				c-0.468,0-0.918,0.207-1.17,0.387l-0.207-0.576c0.306-0.225,0.9-0.45,1.53-0.45c1.152,0,1.675,0.685,1.675,1.396
				c0,0.604-0.36,1.116-1.081,1.378v0.018c0.721,0.145,1.306,0.685,1.306,1.504c0,0.936-0.729,1.755-2.134,1.755
				c-0.657,0-1.233-0.207-1.521-0.396L439.594,406.091z"/>
			<path fill="#666666" d="M447.911,404.011c0,1.99-0.738,3.088-2.034,3.088c-1.144,0-1.918-1.071-1.936-3.007
				c0-1.962,0.846-3.043,2.034-3.043C447.209,401.049,447.911,402.147,447.911,404.011z M444.733,404.102
				c0,1.521,0.469,2.386,1.188,2.386c0.811,0,1.197-0.945,1.197-2.44c0-1.44-0.369-2.386-1.188-2.386
				C445.237,401.661,444.733,402.508,444.733,404.102z"/>
		</g>
	</g>
	<g>
		<rect x="429" y="254" fill="#D6D6D6" width="20" height="1"/>
		<g>
			<path fill="#666666" d="M442.745,238.706c-0.162-0.009-0.369,0-0.594,0.036c-1.243,0.207-1.9,1.116-2.035,2.08h0.027
				c0.279-0.369,0.765-0.676,1.413-0.676c1.035,0,1.765,0.748,1.765,1.891c0,1.071-0.729,2.062-1.944,2.062
				c-1.252,0-2.071-0.972-2.071-2.493c0-1.152,0.414-2.062,0.99-2.638c0.486-0.478,1.135-0.774,1.873-0.864
				c0.234-0.036,0.432-0.045,0.576-0.045V238.706z M442.521,242.082c0-0.837-0.478-1.341-1.207-1.341
				c-0.477,0-0.918,0.297-1.134,0.72c-0.055,0.09-0.091,0.207-0.091,0.352c0.019,0.963,0.46,1.675,1.288,1.675
				C442.061,243.487,442.521,242.92,442.521,242.082z"/>
			<path fill="#666666" d="M447.911,241.011c0,1.99-0.738,3.088-2.034,3.088c-1.144,0-1.918-1.071-1.936-3.007
				c0-1.962,0.846-3.043,2.034-3.043C447.209,238.049,447.911,239.147,447.911,241.011z M444.733,241.102
				c0,1.521,0.469,2.386,1.188,2.386c0.811,0,1.197-0.945,1.197-2.44c0-1.44-0.369-2.386-1.188-2.386
				C445.237,238.661,444.733,239.508,444.733,241.102z"/>
		</g>
	</g>
	<g>
		<rect x="429" y="94" fill="#D6D6D6" width="20" height="1"/>
		<g>
			<path fill="#666666" d="M439.864,83.441c0.171,0.019,0.369,0,0.64-0.026c0.459-0.063,0.891-0.252,1.224-0.567
				c0.388-0.352,0.666-0.864,0.774-1.558h-0.027c-0.323,0.396-0.792,0.63-1.377,0.63c-1.054,0-1.729-0.792-1.729-1.791
				c0-1.107,0.801-2.08,1.999-2.08c1.197,0,1.936,0.973,1.936,2.467c0,1.288-0.433,2.188-1.009,2.746
				c-0.45,0.441-1.071,0.711-1.701,0.783c-0.288,0.045-0.54,0.054-0.729,0.045V83.441z M440.152,80.075
				c0,0.729,0.441,1.242,1.125,1.242c0.531,0,0.945-0.262,1.152-0.612c0.045-0.072,0.072-0.162,0.072-0.288
				c0-0.999-0.369-1.765-1.197-1.765C440.63,78.652,440.152,79.246,440.152,80.075z"/>
			<path fill="#666666" d="M447.911,81.011c0,1.99-0.738,3.088-2.034,3.088c-1.144,0-1.918-1.071-1.936-3.007
				c0-1.962,0.846-3.043,2.034-3.043C447.209,78.049,447.911,79.147,447.911,81.011z M444.733,81.102
				c0,1.521,0.469,2.386,1.188,2.386c0.811,0,1.197-0.945,1.197-2.44c0-1.44-0.369-2.386-1.188-2.386
				C445.237,78.661,444.733,79.508,444.733,81.102z"/>
		</g>
	</g>
	<g>
		<rect x="27" y="497" fill="#D6D6D6" width="20" height="1"/>
		<g>
			<path fill="#666666" d="M29.125,481.887h-0.019l-1.018,0.549l-0.152-0.604l1.278-0.684h0.675V487h-0.765V481.887z"/>
			<path fill="#666666" d="M35.516,481.814h-2.233l-0.225,1.504c0.135-0.019,0.261-0.036,0.478-0.036c0.45,0,0.899,0.099,1.26,0.314
				c0.459,0.262,0.838,0.766,0.838,1.504c0,1.144-0.91,1.998-2.179,1.998c-0.64,0-1.18-0.18-1.459-0.359l0.198-0.604
				c0.243,0.144,0.72,0.324,1.251,0.324c0.748,0,1.387-0.486,1.387-1.27c-0.009-0.756-0.513-1.296-1.684-1.296
				c-0.333,0-0.594,0.035-0.811,0.062l0.379-2.809h2.8V481.814z"/>
		</g>
	</g>
	<g>
		<rect x="27" y="336" fill="#D6D6D6" width="20" height="1"/>
		<g>
			<path fill="#666666" d="M29.854,326v-1.594h-2.719v-0.521l2.611-3.736h0.854v3.637h0.819v0.621h-0.819V326H29.854z
				 M29.854,323.785v-1.953c0-0.307,0.01-0.612,0.027-0.919h-0.027c-0.18,0.343-0.324,0.595-0.485,0.864l-1.432,1.99v0.018H29.854z"
				/>
			<path fill="#666666" d="M35.516,320.814h-2.233l-0.225,1.504c0.135-0.019,0.261-0.036,0.478-0.036c0.45,0,0.899,0.099,1.26,0.314
				c0.459,0.262,0.838,0.766,0.838,1.504c0,1.144-0.91,1.998-2.179,1.998c-0.64,0-1.18-0.18-1.459-0.359l0.198-0.604
				c0.243,0.144,0.72,0.324,1.251,0.324c0.748,0,1.387-0.486,1.387-1.27c-0.009-0.756-0.513-1.296-1.684-1.296
				c-0.333,0-0.594,0.035-0.811,0.062l0.379-2.809h2.8V320.814z"/>
		</g>
	</g>
	<g>
		<rect x="27" y="177" fill="#D6D6D6" width="20" height="1"/>
		<g>
			<path fill="#666666" d="M31.204,161.148v0.521L28.656,167h-0.819l2.539-5.177v-0.018h-2.863v-0.657H31.204z"/>
			<path fill="#666666" d="M35.516,161.814h-2.233l-0.225,1.504c0.135-0.019,0.261-0.036,0.478-0.036c0.45,0,0.899,0.099,1.26,0.314
				c0.459,0.262,0.838,0.766,0.838,1.504c0,1.144-0.91,1.998-2.179,1.998c-0.64,0-1.18-0.18-1.459-0.359l0.198-0.604
				c0.243,0.144,0.72,0.324,1.251,0.324c0.748,0,1.387-0.486,1.387-1.27c-0.009-0.756-0.513-1.296-1.684-1.296
				c-0.333,0-0.594,0.035-0.811,0.062l0.379-2.809h2.8V161.814z"/>
		</g>
	</g>
	<g>
		<rect x="168" y="515" fill="#D6D6D6" width="1" height="20"/>
		<g>
			<path fill="#666666" d="M179.625,515.887h-0.019l-1.018,0.549l-0.152-0.604l1.278-0.684h0.675V521h-0.765V515.887z"/>
			<path fill="#666666" d="M186.411,518.011c0,1.99-0.738,3.088-2.034,3.088c-1.144,0-1.918-1.071-1.936-3.007
				c0-1.962,0.846-3.043,2.034-3.043C185.709,515.049,186.411,516.147,186.411,518.011z M183.233,518.102
				c0,1.521,0.469,2.386,1.188,2.386c0.811,0,1.197-0.945,1.197-2.44c0-1.44-0.369-2.386-1.188-2.386
				C183.737,515.661,183.233,516.508,183.233,518.102z"/>
		</g>
	</g>
	<g>
		<rect x="308" y="435" fill="#D6D6D6" width="1" height="20"/>
		<g>
			<path fill="#666666" d="M317.905,441v-0.486l0.621-0.603c1.494-1.423,2.17-2.179,2.179-3.062c0-0.594-0.288-1.144-1.161-1.144
				c-0.531,0-0.973,0.271-1.243,0.495l-0.252-0.558c0.405-0.342,0.981-0.595,1.657-0.595c1.26,0,1.791,0.864,1.791,1.702
				c0,1.08-0.783,1.953-2.017,3.142l-0.468,0.433v0.018h2.629V441H317.905z"/>
			<path fill="#666666" d="M326.016,435.814h-2.233l-0.225,1.504c0.135-0.019,0.261-0.036,0.478-0.036
				c0.45,0,0.899,0.099,1.26,0.314c0.459,0.262,0.838,0.766,0.838,1.504c0,1.144-0.91,1.998-2.179,1.998
				c-0.64,0-1.18-0.18-1.459-0.359l0.198-0.604c0.243,0.144,0.72,0.324,1.251,0.324c0.748,0,1.387-0.486,1.387-1.27
				c-0.009-0.756-0.513-1.296-1.684-1.296c-0.333,0-0.594,0.035-0.811,0.062l0.379-2.809h2.8V435.814z"/>
		</g>
	</g>
	<g>
		<rect x="168" y="435" fill="#D6D6D6" width="1" height="20"/>
		<g>
			<path fill="#666666" d="M177.905,441v-0.486l0.621-0.603c1.494-1.423,2.17-2.179,2.179-3.062c0-0.594-0.288-1.144-1.161-1.144
				c-0.531,0-0.973,0.271-1.243,0.495l-0.252-0.558c0.405-0.342,0.981-0.595,1.657-0.595c1.26,0,1.791,0.864,1.791,1.702
				c0,1.08-0.783,1.953-2.017,3.142l-0.468,0.433v0.018h2.629V441H177.905z"/>
			<path fill="#666666" d="M186.411,438.011c0,1.99-0.738,3.088-2.034,3.088c-1.144,0-1.918-1.071-1.936-3.007
				c0-1.962,0.846-3.043,2.034-3.043C185.709,435.049,186.411,436.147,186.411,438.011z M183.233,438.102
				c0,1.521,0.469,2.386,1.188,2.386c0.811,0,1.197-0.945,1.197-2.44c0-1.44-0.369-2.386-1.188-2.386
				C183.737,435.661,183.233,436.508,183.233,438.102z"/>
		</g>
	</g>
	<g>
		<rect x="310" y="355" fill="#D6D6D6" width="1" height="20"/>
		<g>
			<path fill="#666666" d="M320.094,360.091c0.226,0.144,0.748,0.369,1.297,0.369c1.018,0,1.332-0.648,1.323-1.135
				c-0.009-0.819-0.747-1.17-1.513-1.17h-0.44v-0.595h0.44c0.576,0,1.306-0.297,1.306-0.99c0-0.468-0.297-0.882-1.026-0.882
				c-0.468,0-0.918,0.207-1.17,0.387l-0.207-0.576c0.306-0.225,0.9-0.45,1.53-0.45c1.152,0,1.675,0.685,1.675,1.396
				c0,0.604-0.36,1.116-1.081,1.378v0.018c0.721,0.145,1.306,0.685,1.306,1.504c0,0.936-0.729,1.755-2.134,1.755
				c-0.657,0-1.233-0.207-1.521-0.396L320.094,360.091z"/>
			<path fill="#666666" d="M328.016,355.814h-2.233l-0.225,1.504c0.135-0.019,0.261-0.036,0.478-0.036
				c0.45,0,0.899,0.099,1.26,0.314c0.459,0.262,0.838,0.766,0.838,1.504c0,1.144-0.91,1.998-2.179,1.998
				c-0.64,0-1.18-0.18-1.459-0.359l0.198-0.604c0.243,0.144,0.72,0.324,1.251,0.324c0.748,0,1.387-0.486,1.387-1.27
				c-0.009-0.756-0.513-1.296-1.684-1.296c-0.333,0-0.594,0.035-0.811,0.062l0.379-2.809h2.8V355.814z"/>
		</g>
	</g>
	<g>
		<rect x="168" y="355" fill="#D6D6D6" width="1" height="20"/>
		<g>
			<path fill="#666666" d="M180.354,361v-1.594h-2.719v-0.521l2.611-3.736h0.854v3.637h0.819v0.621h-0.819V361H180.354z
				 M180.354,358.785v-1.953c0-0.307,0.01-0.612,0.027-0.919h-0.027c-0.18,0.343-0.324,0.595-0.485,0.864l-1.432,1.99v0.018H180.354
				z"/>
			<path fill="#666666" d="M186.411,358.011c0,1.99-0.738,3.088-2.034,3.088c-1.144,0-1.918-1.071-1.936-3.007
				c0-1.962,0.846-3.043,2.034-3.043C185.709,355.049,186.411,356.147,186.411,358.011z M183.233,358.102
				c0,1.521,0.469,2.386,1.188,2.386c0.811,0,1.197-0.945,1.197-2.44c0-1.44-0.369-2.386-1.188-2.386
				C183.737,355.661,183.233,356.508,183.233,358.102z"/>
		</g>
	</g>
	<g>
		<rect x="308" y="275" fill="#D6D6D6" width="1" height="20"/>
		<g>
			<path fill="#666666" d="M321.398,275.814h-2.233l-0.225,1.504c0.135-0.019,0.261-0.036,0.478-0.036
				c0.45,0,0.899,0.099,1.26,0.314c0.459,0.262,0.838,0.766,0.838,1.504c0,1.144-0.91,1.998-2.179,1.998
				c-0.64,0-1.18-0.18-1.459-0.359l0.198-0.604c0.243,0.144,0.72,0.324,1.251,0.324c0.748,0,1.387-0.486,1.387-1.27
				c-0.009-0.756-0.513-1.296-1.684-1.296c-0.333,0-0.594,0.035-0.811,0.062l0.379-2.809h2.8V275.814z"/>
			<path fill="#666666" d="M326.016,275.814h-2.233l-0.225,1.504c0.135-0.019,0.261-0.036,0.478-0.036
				c0.45,0,0.899,0.099,1.26,0.314c0.459,0.262,0.838,0.766,0.838,1.504c0,1.144-0.91,1.998-2.179,1.998
				c-0.64,0-1.18-0.18-1.459-0.359l0.198-0.604c0.243,0.144,0.72,0.324,1.251,0.324c0.748,0,1.387-0.486,1.387-1.27
				c-0.009-0.756-0.513-1.296-1.684-1.296c-0.333,0-0.594,0.035-0.811,0.062l0.379-2.809h2.8V275.814z"/>
		</g>
	</g>
	<g>
		<rect x="168" y="275" fill="#D6D6D6" width="1" height="20"/>
		<g>
			<path fill="#666666" d="M181.398,275.814h-2.233l-0.225,1.504c0.135-0.019,0.261-0.036,0.478-0.036
				c0.45,0,0.899,0.099,1.26,0.314c0.459,0.262,0.838,0.766,0.838,1.504c0,1.144-0.91,1.998-2.179,1.998
				c-0.64,0-1.18-0.18-1.459-0.359l0.198-0.604c0.243,0.144,0.72,0.324,1.251,0.324c0.748,0,1.387-0.486,1.387-1.27
				c-0.009-0.756-0.513-1.296-1.684-1.296c-0.333,0-0.594,0.035-0.811,0.062l0.379-2.809h2.8V275.814z"/>
			<path fill="#666666" d="M186.411,278.011c0,1.99-0.738,3.088-2.034,3.088c-1.144,0-1.918-1.071-1.936-3.007
				c0-1.962,0.846-3.043,2.034-3.043C185.709,275.049,186.411,276.147,186.411,278.011z M183.233,278.102
				c0,1.521,0.469,2.386,1.188,2.386c0.811,0,1.197-0.945,1.197-2.44c0-1.44-0.369-2.386-1.188-2.386
				C183.737,275.661,183.233,276.508,183.233,278.102z"/>
		</g>
	</g>
	<g>
		<rect x="310" y="195" fill="#D6D6D6" width="1" height="20"/>
		<g>
			<path fill="#666666" d="M323.245,195.706c-0.162-0.009-0.369,0-0.594,0.036c-1.243,0.207-1.9,1.116-2.035,2.08h0.027
				c0.279-0.369,0.765-0.676,1.413-0.676c1.035,0,1.765,0.748,1.765,1.891c0,1.071-0.729,2.062-1.944,2.062
				c-1.252,0-2.071-0.972-2.071-2.493c0-1.152,0.414-2.062,0.99-2.638c0.486-0.478,1.135-0.774,1.873-0.864
				c0.234-0.036,0.432-0.045,0.576-0.045V195.706z M323.021,199.082c0-0.837-0.478-1.341-1.207-1.341
				c-0.477,0-0.918,0.297-1.134,0.72c-0.055,0.09-0.091,0.207-0.091,0.352c0.019,0.963,0.46,1.675,1.288,1.675
				C322.561,200.487,323.021,199.92,323.021,199.082z"/>
			<path fill="#666666" d="M328.016,195.814h-2.233l-0.225,1.504c0.135-0.019,0.261-0.036,0.478-0.036
				c0.45,0,0.899,0.099,1.26,0.314c0.459,0.262,0.838,0.766,0.838,1.504c0,1.144-0.91,1.998-2.179,1.998
				c-0.64,0-1.18-0.18-1.459-0.359l0.198-0.604c0.243,0.144,0.72,0.324,1.251,0.324c0.748,0,1.387-0.486,1.387-1.27
				c-0.009-0.756-0.513-1.296-1.684-1.296c-0.333,0-0.594,0.035-0.811,0.062l0.379-2.809h2.8V195.814z"/>
		</g>
	</g>
	<g>
		<rect x="168" y="195" fill="#D6D6D6" width="1" height="20"/>
		<g>
			<path fill="#666666" d="M181.704,195.148v0.521l-2.548,5.33h-0.819l2.539-5.177v-0.018h-2.863v-0.657H181.704z"/>
			<path fill="#666666" d="M186.411,198.011c0,1.99-0.738,3.088-2.034,3.088c-1.144,0-1.918-1.071-1.936-3.007
				c0-1.962,0.846-3.043,2.034-3.043C185.709,195.049,186.411,196.147,186.411,198.011z M183.233,198.102
				c0,1.521,0.469,2.386,1.188,2.386c0.811,0,1.197-0.945,1.197-2.44c0-1.44-0.369-2.386-1.188-2.386
				C183.737,195.661,183.233,196.508,183.233,198.102z"/>
		</g>
	</g>
	<g>
		<rect x="308" y="115" fill="#D6D6D6" width="1" height="20"/>
		<g>
			<path fill="#666666" d="M317.833,119.515c0-0.738,0.441-1.261,1.161-1.566l-0.009-0.027c-0.648-0.306-0.927-0.81-0.927-1.314
				c0-0.927,0.783-1.558,1.81-1.558c1.134,0,1.701,0.712,1.701,1.44c0,0.495-0.243,1.026-0.964,1.369v0.026
				c0.729,0.288,1.18,0.802,1.18,1.513c0,1.018-0.873,1.701-1.989,1.701C318.571,121.099,317.833,120.37,317.833,119.515z
				 M320.984,119.479c0-0.711-0.495-1.054-1.288-1.278c-0.684,0.198-1.053,0.648-1.053,1.206c-0.027,0.595,0.423,1.116,1.17,1.116
				C320.524,120.522,320.984,120.082,320.984,119.479z M318.806,116.553c0,0.585,0.44,0.9,1.116,1.08
				c0.504-0.171,0.892-0.531,0.892-1.062c0-0.468-0.279-0.954-0.991-0.954C319.165,115.616,318.806,116.049,318.806,116.553z"/>
			<path fill="#666666" d="M326.016,115.814h-2.233l-0.225,1.504c0.135-0.019,0.261-0.036,0.478-0.036
				c0.45,0,0.899,0.099,1.26,0.314c0.459,0.262,0.838,0.766,0.838,1.504c0,1.144-0.91,1.998-2.179,1.998
				c-0.64,0-1.18-0.18-1.459-0.359l0.198-0.604c0.243,0.144,0.72,0.324,1.251,0.324c0.748,0,1.387-0.486,1.387-1.27
				c-0.009-0.756-0.513-1.296-1.684-1.296c-0.333,0-0.594,0.035-0.811,0.062l0.379-2.809h2.8V115.814z"/>
		</g>
	</g>
	<g>
		<rect x="166" y="115" fill="#D6D6D6" width="1" height="20"/>
		<g>
			<path fill="#666666" d="M175.833,119.515c0-0.738,0.441-1.261,1.161-1.566l-0.009-0.027c-0.648-0.306-0.927-0.81-0.927-1.314
				c0-0.927,0.783-1.558,1.81-1.558c1.134,0,1.701,0.712,1.701,1.44c0,0.495-0.243,1.026-0.964,1.369v0.026
				c0.729,0.288,1.18,0.802,1.18,1.513c0,1.018-0.873,1.701-1.989,1.701C176.571,121.099,175.833,120.37,175.833,119.515z
				 M178.984,119.479c0-0.711-0.495-1.054-1.288-1.278c-0.684,0.198-1.053,0.648-1.053,1.206c-0.027,0.595,0.423,1.116,1.17,1.116
				C178.524,120.522,178.984,120.082,178.984,119.479z M176.806,116.553c0,0.585,0.44,0.9,1.116,1.08
				c0.504-0.171,0.892-0.531,0.892-1.062c0-0.468-0.279-0.954-0.991-0.954C177.165,115.616,176.806,116.049,176.806,116.553z"/>
			<path fill="#666666" d="M184.411,118.011c0,1.99-0.738,3.088-2.034,3.088c-1.144,0-1.918-1.071-1.936-3.007
				c0-1.962,0.846-3.043,2.034-3.043C183.709,115.049,184.411,116.147,184.411,118.011z M181.233,118.102
				c0,1.521,0.469,2.386,1.188,2.386c0.811,0,1.197-0.945,1.197-2.44c0-1.44-0.369-2.386-1.188-2.386
				C181.737,115.661,181.233,116.508,181.233,118.102z"/>
		</g>
	</g>
	<g>
		<rect x="311" y="35" fill="#D6D6D6" width="1" height="20"/>
		<g>
			<path fill="#666666" d="M321.364,40.441c0.171,0.019,0.369,0,0.64-0.026c0.459-0.063,0.891-0.252,1.224-0.567
				c0.388-0.352,0.666-0.864,0.774-1.558h-0.027c-0.323,0.396-0.792,0.63-1.377,0.63c-1.054,0-1.729-0.792-1.729-1.791
				c0-1.107,0.801-2.08,1.999-2.08c1.197,0,1.936,0.973,1.936,2.467c0,1.288-0.433,2.188-1.009,2.746
				c-0.45,0.441-1.071,0.711-1.701,0.783c-0.288,0.045-0.54,0.054-0.729,0.045V40.441z M321.652,37.075
				c0,0.729,0.441,1.242,1.125,1.242c0.531,0,0.945-0.262,1.152-0.612c0.045-0.072,0.072-0.162,0.072-0.288
				c0-0.999-0.369-1.765-1.197-1.765C322.13,35.652,321.652,36.246,321.652,37.075z"/>
			<path fill="#666666" d="M329.016,35.814h-2.233l-0.225,1.504c0.135-0.019,0.261-0.036,0.478-0.036c0.45,0,0.899,0.099,1.26,0.314
				c0.459,0.262,0.838,0.766,0.838,1.504c0,1.144-0.91,1.998-2.179,1.998c-0.64,0-1.18-0.18-1.459-0.359l0.198-0.604
				c0.243,0.144,0.72,0.324,1.251,0.324c0.748,0,1.387-0.486,1.387-1.27c-0.009-0.756-0.513-1.296-1.684-1.296
				c-0.333,0-0.594,0.035-0.811,0.062l0.379-2.809h2.8V35.814z"/>
		</g>
	</g>
	<g>
		<rect x="169" y="35" fill="#D6D6D6" width="1" height="20"/>
		<g>
			<path fill="#666666" d="M180.625,35.887h-0.019l-1.018,0.549l-0.152-0.604l1.278-0.684h0.675V41h-0.765V35.887z"/>
			<path fill="#666666" d="M187.411,38.011c0,1.99-0.738,3.088-2.034,3.088c-1.144,0-1.918-1.071-1.936-3.007
				c0-1.962,0.846-3.043,2.034-3.043C186.709,35.049,187.411,36.147,187.411,38.011z M184.233,38.102
				c0,1.521,0.469,2.386,1.188,2.386c0.811,0,1.197-0.945,1.197-2.44c0-1.44-0.369-2.386-1.188-2.386
				C184.737,35.661,184.233,36.508,184.233,38.102z"/>
			<path fill="#666666" d="M192.027,38.011c0,1.99-0.738,3.088-2.034,3.088c-1.144,0-1.918-1.071-1.936-3.007
				c0-1.962,0.846-3.043,2.034-3.043C191.325,35.049,192.027,36.147,192.027,38.011z M188.85,38.102
				c0,1.521,0.468,2.386,1.188,2.386c0.811,0,1.197-0.945,1.197-2.44c0-1.44-0.369-2.386-1.188-2.386
				C189.354,35.661,188.85,36.508,188.85,38.102z"/>
		</g>
	</g>
	<g id="guides">
	</g>
</g>
<g id="Ebene_2">
	<path fill="none" stroke="#000000" stroke-miterlimit="10" d="M428.082,575.186c0-22.092-17.658-40-39.75-40h-300
		c-22.092,0-40-17.908-40-40s17.908-40,40-40h300c22.092,0,40-17.908,40-40s-17.908-40-40-40h-300c-22.092,0-40-17.908-40-40
		s17.908-40,40-40h300c22.092,0,40-17.908,40-40s-17.908-40-40-40h-300c-22.092,0-40-17.908-40-40s17.908-40,40-40h300
		c22.092,0,40-17.908,40-40s-17.908-40-40-40h-219.5"/>
</g>
</svg>
