<?xml version="1.0" encoding="utf-8"?>
<!-- Generator: Adobe Illustrator 19.1.0, SVG Export Plug-In . SVG Version: 6.00 Build 0)  -->
<svg version="1.1" id="Ebene_0_xA0_Bild_1_" xmlns="http://www.w3.org/2000/svg" xmlns:xlink="http://www.w3.org/1999/xlink"
	 x="0px" y="0px" viewBox="-532 294 215 214" style="enable-background:new -532 294 215 214;" xml:space="preserve">
<style type="text/css">
	.st0{fill:#989898;}
	.st1{fill:#FCFCFC;}
</style>
<g>
	<path class="st0" d="M-524.1,507.9c1-1.1,1.9-2.3,2.9-3.4c66.9-66.9,133.8-133.8,200.7-200.7c1.1-1.1,2.2-2,3.4-2.9
		c0,67.6,0,135.2,0.1,202.8c0,3.6-0.7,4.4-4.3,4.3C-389,507.8-456.6,507.9-524.1,507.9z"/>
	<path class="st1" d="M-403.4,450.4c0-8.2,0.1-16.3-0.1-24.5c-0.1-3.1,1-4.1,4-4c4.5,0.2,9,0,13.5,0.1c1.3,0,3.5-0.8,3.4,1.6
		c-0.1,1.9-2,1.3-3.2,1.3c-3.7,0.1-7.3,0.2-11,0c-2.9-0.2-3.7,1.1-3.7,3.8c0.1,14.8,0.1,29.6,0,44.5c0,2.5,0.8,3.6,3.4,3.5
		c14.8-0.1,29.6-0.1,44.5,0c2.7,0,3.4-1,3.4-3.5c-0.1-15-0.1-30,0-45c0-2.8-1.1-3.4-3.6-3.3c-4,0.1-8,0-12,0c-1,0-2.2,0.1-2.3-1.3
		c-0.2-1.7,1.2-1.7,2.3-1.7c5.3,0,10.7,0,16,0c2,0,2.5,1,2.5,2.8c0,17.3,0,34.6,0,52c0,2.5-1.1,3.1-3.3,3.1
		c-16.8-0.1-33.6-0.1-50.5,0c-3.1,0-3.6-1.4-3.5-3.9C-403.3,467.4-403.4,458.9-403.4,450.4z"/>
	<path class="st1" d="M-373.2,406.7c0,12.8,0,25.6,0,38.4c0,1.3,0,2.7-0.1,4c0,0.9-0.5,1.6-1.5,1.6s-1.4-0.8-1.4-1.7
		c0-1.3-0.1-2.7-0.1-4c0-12.8,0-25.6,0-39.6c-3.3,3.2-5.8,5.6-8.4,8.1c-0.7,0.7-1.5,1.5-2.5,0.6c-1.3-1.1-0.6-2,0.3-2.9
		c3.4-3.4,6.9-6.8,10.2-10.3c1.2-1.2,2.2-1.1,3.4,0c3.4,3.4,6.9,6.8,10.3,10.2c0.8,0.8,2.1,1.6,0.7,2.8c-1.3,1.2-2.1,0-2.9-0.9
		c-2.2-2.5-4.3-5.1-6.4-7.6C-372.1,406-372.7,406.4-373.2,406.7z"/>
</g>
</svg>
