<svg version="1.1" id="male" xmlns="http://www.w3.org/2000/svg" x="0px" y="0px" width="15px" height="30px" viewBox="0 0 15 30" enable-background="new 0 0 15 30" xml:space="preserve">
<g>
	<path fill="#888" d="M7.5,5.809c-0.869,0-1.576-0.742-1.576-1.654c0-0.912,0.707-1.653,1.576-1.653 c0.87,0,1.577,0.742,1.577,1.653C9.077,5.067,8.369,5.809,7.5,5.809z"/>
	<path fill="#888" d="M11.997,16.187c0,0.522-0.405,0.946-0.903,0.946h-0.453V9.59H9.75v16.96c0,0.522-0.405,0.946-0.903,0.946 c-0.493,0-0.895-0.416-0.903-0.931c0-0.005,0-0.01,0-0.015c0-0.004,0-0.009,0-0.012V16.187H7.054v10.364c0,0.006,0,0.01,0,0.015 c-0.007,0.515-0.41,0.931-0.903,0.931c-0.498,0-0.902-0.424-0.902-0.946V9.59H4.358v7.542H3.905c-0.498,0-0.902-0.424-0.902-0.946 V9.119c0-1.301,1.009-2.36,2.25-2.36h4.493c1.241,0,2.251,1.058,2.251,2.36L11.997,16.187L11.997,16.187z"/>
</g>
</svg>
