<svg version="1.1" id="male-large" xmlns="http://www.w3.org/2000/svg" xmlns:xlink="http://www.w3.org/1999/xlink" x="0px" y="0px"
	 width="100px" height="230px" viewBox="0 0 100 230" enable-background="new 0 0 100 230" xml:space="preserve">
<g>
	<path fill="#444444" d="M50,74.726c-3.808,0-6.906-3.252-6.906-7.248s3.098-7.244,6.906-7.244c3.813,0,6.911,3.252,6.911,7.244 C56.911,71.474,53.808,74.726,50,74.726z"/>
	<path fill="#444444" d="M69.707,120.204c0,2.287-1.775,4.145-3.957,4.145h-1.985V91.295H59.86v74.321 c0,2.287-1.775,4.145-3.957,4.145c-2.16,0-3.922-1.823-3.957-4.08c0-0.022,0-0.044,0-0.065c0-0.017,0-0.039,0-0.052v-45.36h-3.9 v45.417c0,0.026,0,0.044,0,0.065c-0.031,2.257-1.797,4.08-3.957,4.08c-2.183,0-3.953-1.858-3.953-4.145V91.295h-3.905v33.05h-1.985 c-2.183,0-3.953-1.858-3.953-4.145V89.231c0-5.701,4.421-10.342,9.86-10.342h19.689c5.438,0,9.864,4.636,9.864,10.342 L69.707,120.204L69.707,120.204z"/>
</g>
</svg>
