<svg version="1.1" id="female" xmlns="http://www.w3.org/2000/svg" x="0px" y="0px" width="15px" height="30px" viewBox="0 0 15 30" enable-background="new 0 0 15 30" xml:space="preserve">
<g>
	<path fill="#70CDDE" d="M7.025,20.425v6.123c0,0.005,0,0.01,0,0.015c-0.008,0.515-0.437,0.931-0.964,0.931 c-0.531,0-0.963-0.424-0.963-0.946v-6.123c0-0.001,0-0.002,0-0.004h1.927C7.025,20.422,7.025,20.423,7.025,20.425z"/>
	<path fill="#70CDDE" d="M9.903,20.425v6.123c0,0.522-0.432,0.946-0.964,0.946c-0.526,0-0.955-0.416-0.963-0.931 c0-0.005,0-0.009,0-0.015c0-0.004,0-0.008,0-0.012v-6.111c0-0.001,0-0.002,0-0.004h1.927C9.903,20.422,9.903,20.423,9.903,20.425z" />
	<path fill="#70CDDE" d="M11.777,16.874l-1.792-7.39L9.059,9.7l2.374,9.787H3.542L5.916,9.7L4.99,9.484l-1.79,7.384l-0.472-0.111 c-0.517-0.121-0.837-0.631-0.714-1.139l1.711-7.048c0,0,0,0,0.001-0.001c0.259-1.065,1.22-1.808,2.336-1.808h2.878 c1.117,0,2.078,0.744,2.337,1.809l0,0l1.711,7.046c0,0,0,0,0,0.001c0.123,0.508-0.197,1.019-0.714,1.139L11.777,16.874z"/>
	<path fill="#70CDDE" d="M7.501,5.812c-0.928,0-1.683-0.741-1.683-1.653c0-0.911,0.755-1.653,1.683-1.653 c0.928,0,1.683,0.741,1.683,1.653C9.184,5.071,8.429,5.812,7.501,5.812z"/>
</g>
</svg>
