<svg id="baby-girl" xmlns="http://www.w3.org/2000/svg" x="0px" y="0px" width="60px" height="60px" viewBox="0 0 60 60" enable-background="new 0 0 60 60" xml:space="preserve">
<g>
	<path fill="#70CDDE" d="M24.453,33.448v-4.664l-4.58,4.501c-1.985,2.016-4.669-0.567-2.679-2.591l7.251-7.397 c0.592-0.589,1.237-0.966,2.266-0.975h6.511c1.017,0.009,1.705,0.375,2.308,0.975l7.34,7.485c1.889,1.913-0.87,4.52-2.679,2.57 l-4.646-4.59v4.687H24.453z"/>
	<path fill="#70CDDE" d="M35.662,35.189l-4.312,4.385l3.18,3.21l-3.244,3.301c-1.92,1.943,0.719,4.727,2.698,2.725l5.118-5.426 c1.108-1.148,1.412-3.256,0.241-4.451C39.331,38.924,35.662,35.189,35.662,35.189L35.662,35.189z"/>
	<path fill="#70CDDE" d="M24.251,35.189l4.312,4.385l-3.157,3.21l3.245,3.301c1.907,1.943-0.732,4.727-2.701,2.725l-5.139-5.426 c-1.098-1.147-1.401-3.256-0.218-4.451C20.591,38.924,24.251,35.189,24.251,35.189L24.251,35.189z"/>
	<path fill="#70CDDE" d="M32.512,20.151L32.512,20.151l-0.009,0.006c-0.737,0.462-4.54,2.052-8.802-2.009 c-1.71-1.769-2.521-4.461-2.521-4.461s1.819,0.833,3.239,0.277c0.961-0.379,1.919-1.548,2.101-1.78 c0.443-0.509,0.993-0.94,1.635-1.236c2.507-1.155,5.463-0.001,6.604,2.572C35.865,16.026,34.857,18.917,32.512,20.151z"/>
</g>
</svg>
