<?xml version="1.0" encoding="utf-8"?>
<!-- Generator: Adobe Illustrator 19.1.0, SVG Export Plug-In . SVG Version: 6.00 Build 0)  -->
<svg version="1.1" id="Ebene_1" xmlns="http://www.w3.org/2000/svg" xmlns:xlink="http://www.w3.org/1999/xlink" x="0px" y="0px"
	 viewBox="-545 306.8 189 188.2" style="enable-background:new -545 306.8 189 188.2;" xml:space="preserve">
<style type="text/css">
	.st0{fill:#3DC93F;}
	.st1{fill:#FEFEFE;}
</style>
<g>
	<path class="st0" d="M-526.3,424.6c0-8.3-0.1-16.7,0.1-25c0.1-2.8-0.8-4.1-3.6-3.6c-0.2,0-0.3,0-0.5,0c-4.5-0.1-10.4,1.5-13-0.8
		c-3.1-2.6-0.9-8.7-0.9-13.3c0-4.2-2-9.9,1-12.3c2.5-2.1,8-1,12.1-0.6c4.4,0.4,5.4-1.3,5.1-5.3c-0.3-4.3-0.1-8.7-0.1-13
		c0-17.1,10.1-28.2,27.2-29.6c6-0.5,12-0.2,17.9,0.6c2.6,0.3,3.3,1.3,3.2,3.8c-0.1,8.3-0.1,16.6,0,25c0,2.6-0.9,3.5-3.5,3.4
		c-3.2-0.2-6.3,0-9.5,0c-3.6,0-5,1.9-5.3,5.2c-0.8,9.8-0.8,9.7,8.9,9.9c4.2,0.1,9.9-2.1,12.1,1.2c1.8,2.6-0.3,8-0.8,12.1
		c-0.6,4.5,1,10.7-2.3,13.2c-2.9,2.2-8.7,0.9-13.1,0.6c-4.3-0.4-4.8,1.5-4.8,5.1c0.2,16,0,32,0.2,47.9c0,3.6-0.8,5-4.7,4.8
		c-7.3-0.3-14.6-0.2-22,0c-2.8,0.1-3.7-0.8-3.7-3.7C-526.2,441.5-526.3,433-526.3,424.6z"/>
	<path class="st1" d="M-520.3,418.7c0-8.3-0.2-16.7,0.1-25c0.1-3.2-1-4.1-4-3.8c-2.6,0.2-5.4-0.3-8,0.1c-5.5,0.9-6.6-1.6-6.3-6.5
		c0.4-8.6,0.1-8.6,8.7-8.6c9.6,0,9.6,0,9.6-9.6c0-5.5-0.1-11,0-16.5c0.3-11.8,7.4-19.5,19.1-21.2c4.7-0.7,9.3-0.8,13.9-0.6
		c2.3,0.1,3.3,1,3.2,3.4c-0.1,4.7-0.1,9.3,0,14c0.1,2.7-1.1,3.6-3.6,3.3c-10.3-1.3-15,3.1-14.7,15.3c0.3,11.9,0.1,11.9,11.8,11.9
		c9,0,8.6,0,8.4,8.9c-0.2,4.9-1.5,6.8-6.6,6.3c-4.2-0.4-10-1.5-12.5,0.7c-2.9,2.6-0.9,8.4-1,12.9c-0.1,13.2-0.1,26.3,0,39.5
		c0,3.3-0.7,4.9-4.3,4.6c-3.5-0.3-7-0.2-10.5,0c-2.7,0.1-3.4-0.9-3.4-3.4C-520.2,435.7-520.3,427.2-520.3,418.7z"/>
</g>
</svg>
