<?xml version="1.0" encoding="utf-8"?>
<!-- Generator: Adobe Illustrator 19.1.0, SVG Export Plug-In . SVG Version: 6.00 Build 0)  -->
<svg version="1.1" id="Ebene_1" xmlns="http://www.w3.org/2000/svg" xmlns:xlink="http://www.w3.org/1999/xlink" x="0px" y="0px"
	 viewBox="-544 306.8 191 188.2" style="enable-background:new -544 306.8 191 188.2;" xml:space="preserve">
<style type="text/css">
	.st0{fill:#613fc2;}
	.st1{fill:#613fc2;}
	.st2{fill:#613fc2;}
	.st3{fill:#613fc2;}
	.st4{fill:#FEFEFE;}
</style>
<g>
	<path class="st0" d="M-480.3,453.9c-19.7,0-39.3-0.1-59,0.1c-3.8,0-4.7-1.1-4.7-4.8c0.1-34.3,0.1-68.7,0-103c0-3.5,1-4.8,4.5-4.4
		c2.8,0.3,5.7,0.1,8.5,0c2-0.1,3.5,0.1,3.5,2.8c0,2.8-1.1,3.3-3.6,3.3c-6.8,0.1-6.8,0.2-6.8,6.9c0,11,0,11,10.9,11
		c33,0,66-0.1,99,0.1c4.1,0,5.7-1,5.3-5.2c-0.4-4,1.2-9-0.7-11.7c-2.1-3-7.4-0.8-11.3-1c-2.2-0.1-3.3-0.5-3.3-3.1
		c0-2.5,1-3.1,3.3-3.1c5,0.1,10,0.2,15,0c2.8-0.1,3.2,1.2,3.2,3.6c-0.1,35-0.1,70,0,105c0,3.6-1.8,3.5-4.4,3.5
		C-440.7,453.9-460.5,453.9-480.3,453.9z"/>
	<path class="st1" d="M-511.4,338.7c0,4.8-0.2,9.7,0.1,14.5c0.3,4-2.2,3.8-4.7,3.6c-2.3-0.2-5.6,1.4-5.5-3.3c0.2-10,0.2-20,0-30
		c-0.1-4.4,3-3,5.2-3.1c2.4-0.1,5.2-0.8,5,3.4C-511.6,328.7-511.4,333.7-511.4,338.7z"/>
	<path class="st2" d="M-444,338.7c0,5-0.2,10,0,14.9c0.2,4.4-2.9,3.1-5.1,3.1c-2.2,0-5.2,1.2-5.1-3.1c0.2-10.1,0.1-20.2,0-30.3
		c0-4.4,3.2-2.8,5.3-2.9s4.9-1.1,4.8,2.9C-444.1,328.4-444,333.6-444,338.7z"/>
	<path class="st3" d="M-482.2,341.9c6.3,0,12.7,0.1,19,0c2.3,0,3.2,0.6,3.2,3.1s-1,3-3.2,3c-13-0.1-26-0.1-39,0
		c-2.3,0-3.2-0.6-3.2-3.1s1-3.1,3.2-3C-495.5,342-488.9,341.9-482.2,341.9z"/>
	<path class="st4" d="M-479.9,447.9c-17.8,0-35.7-0.1-53.5,0.1c-3.4,0-4.6-0.9-4.5-4.4c0.1-22.5,0.1-45,0-67.5
		c0-3.2,0.8-4.2,4.2-4.2c35.5,0.1,71,0.1,106.5,0c3.4,0,4.6,0.7,4.5,4.4c-0.2,22.3-0.2,44.7,0,67c0,3.6-0.8,4.9-4.7,4.8
		C-444.9,447.8-462.4,447.9-479.9,447.9z"/>
</g>
</svg>
