<?xml version="1.0" encoding="utf-8"?>
<!-- Generator: Adobe Illustrator 19.1.0, SVG Export Plug-In . SVG Version: 6.00 Build 0)  -->
<svg version="1.1" id="Ebene_1" xmlns="http://www.w3.org/2000/svg" xmlns:xlink="http://www.w3.org/1999/xlink" x="0px" y="0px"
	 viewBox="-544 306.9 191 188.1" style="enable-background:new -544 306.9 191 188.1;" xml:space="preserve">
<style type="text/css">
	.st0{fill:#613fc2;}
	.st1{fill:#613fc2;}
	.st2{fill:#613fc2;}
	.st3{fill:#FEFEFE;}
</style>
<g>
	<path class="st0" d="M-462.7,369.1c11.2-9.5,22.8-10.8,35-8.2c9.9,2.1,17.2,7.4,20.8,17.4c2.6,7.1,4.3,14.3,4.3,21.9
		c-0.1,17.2-0.2,34.3-0.1,51.5c0,3.4-0.7,4.7-4.3,4.5c-8.2-0.3-16.3-0.3-24.5,0c-3.7,0.1-4.4-1.3-4.3-4.6
		c0.2-14.2,0.1-28.3,0.1-42.5c0-3.7,0-7.3-1-10.9c-1.6-6.1-4-8.3-9.9-8.7c-6.6-0.5-10.6,1.8-12.8,7.2c-1.6,3.9-2,8-1.9,12.2
		c0.1,14.3,0,28.6,0.1,43c0,3.1-0.7,4.4-4.1,4.3c-8.5-0.3-17-0.2-25.5,0c-2.6,0-3.4-0.8-3.4-3.4c0.1-29.1,0.1-58.3,0-87.4
		c0-3.1,1.2-3.5,3.8-3.5c7.3,0.1,14.7,0.3,22-0.1C-464,361.6-461.3,362.3-462.7,369.1z"/>
	<path class="st1" d="M-506.2,408.9c0,14.3-0.1,28.7,0.1,43c0,3.2-0.7,4.4-4.2,4.3c-8.5-0.2-17-0.2-25.5,0c-2.5,0-3.5-0.7-3.5-3.4
		c0.1-29.2,0.1-58.3,0-87.5c0-2.5,0.7-3.5,3.3-3.5c8.7,0.1,17.3,0.2,26,0c3.3-0.1,3.8,1.2,3.8,4.1
		C-506.3,380.3-506.2,394.6-506.2,408.9z"/>
	<path class="st2" d="M-504.1,336.4c0,10.2-8.6,18.7-18.9,18.6c-10.3-0.1-18.8-8.7-18.6-18.9c0.1-10,8.5-18.2,18.6-18.3
		C-512.5,317.8-504.1,326.1-504.1,336.4z"/>
	<path class="st3" d="M-489,409.1c0-12.5,0.1-25-0.1-37.5c0-3.3,0.6-4.8,4.3-4.6c4.3,0.3,8.7,0.3,13,0c3.1-0.2,4.2,1,3.9,4
		c-0.2,1.5-0.1,3,0,4.5c0.1,1.3-0.7,3.2,1.5,3.7c2,0.4,3.3-0.2,4.5-2.1c9.3-15.5,34.4-14.5,44.4-5.7c4.1,3.6,6.2,8.6,7.5,13.8
		c2,8.5,2,17.2,2,25.8c-0.1,12-0.1,24,0.1,36c0,3.1-0.8,4.1-3.9,3.9c-4.7-0.3-9.3-0.3-14,0c-3.4,0.2-4.6-0.7-4.5-4.3
		c0.2-12.5,0.1-25,0.2-37.5c0-4.4-0.4-8.6-1.5-12.8c-2.1-7.9-6.9-11.9-14.9-12.2c-8.5-0.4-14.8,3.3-17.6,10.4
		c-1.8,4.5-2.6,9.3-2.6,14.1c0,12.8-0.1,25.7,0.1,38.5c0,3.1-0.9,4.1-3.9,3.9c-4.8-0.3-9.7-0.3-14.5,0c-3.1,0.2-4-0.8-3.9-3.9
		C-488.9,434.4-489,421.8-489,409.1z"/>
	<path class="st3" d="M-534,409.2c0-12.6,0.1-25.3-0.1-37.9c-0.1-3.3,1-4.3,4.2-4.2c4.8,0.2,9.6,0.1,14.5,0c2.4-0.1,3.7,0.4,3.7,3.2
		c-0.1,25.9-0.1,51.9,0,77.8c0,2.3-0.9,2.8-3,2.8c-5.2-0.1-10.3-0.2-15.5,0c-3.1,0.2-3.9-0.9-3.9-3.9
		C-533.9,434.4-534,421.8-534,409.2z"/>
	<path class="st3" d="M-509.4,336.2c0.1,7.2-5.9,13.4-13.2,13.5c-7.3,0.2-13.5-5.8-13.5-13.1c-0.1-7.4,5.7-13.4,13.1-13.5
		C-515.8,322.9-509.6,329-509.4,336.2z"/>
</g>
</svg>
