<?xml version="1.0" encoding="utf-8"?>
<!-- Generator: Adobe Illustrator 19.1.0, SVG Export Plug-In . SVG Version: 6.00 Build 0)  -->
<svg version="1.1" id="Ebene_1" xmlns="http://www.w3.org/2000/svg" xmlns:xlink="http://www.w3.org/1999/xlink" x="0px" y="0px"
	 viewBox="-594.2 307 191 188.1" style="enable-background:new -594.2 307 191 188.1;" xml:space="preserve">
<style type="text/css">
	.st0{fill:#613fc2;}
	.st1{fill:#FEFEFE;}
</style>
<g>
	<path class="st0" d="M-594.2,439.3c14.5-0.1,28.5-1,41.8-8.8c-15.4-7.5-25.7-19.1-30.5-35.4c-4.8-16.2-2.7-31.5,4.8-46.7
		c3.3,2.5,5.5,5.8,8,8.9c10.3,12.1,22.2,21.5,38.2,24.9c3.8,0.8,5.6,1,5.6-4.3c0.2-28.6,26-37.5,43.6-30.7c4.1,1.6,7.6,4.2,10.5,7.5
		c1.8,2.1,3.2,2.1,5.6,1.1c4.6-1.9,8.4-5.1,13.1-8.6c0,11.3-1.4,21.3-9.8,28.7c-2.7,2.4-2.5,5.2-2.9,8.1
		c-3.4,27.4-15.5,49.6-40.2,63.1c-26.5,14.3-53.1,12.8-79.1-2C-588.5,443.3-591.2,441.2-594.2,439.3z"/>
	<path class="st1" d="M-572.2,444c13-2.5,24.6-7.6,35.8-16.5c-16.7-1.9-29-9.7-36.5-24.1c-7.2-13.9-8.7-28.5-3.1-44
		c5.1,6.4,10.7,11.8,16.8,16.6c11.2,9,24.4,12.4,38.4,13.9c3.4,0.4,2.1-1.6,1.7-3c-1.9-7.5-1.5-14.9,1.7-22
		c3.9-8.6,11.2-12.3,20.1-13.6c9.1-1.3,17.1,1.4,22.1,9.3c2.3,3.6,4,3.9,7.3,2.2c2-1,4.2-1.7,7-2.7c-1,4.5-2.2,8.5-5.5,10.4
		c-5.6,3.2-5.2,8.2-5.8,13.2c-2.5,21-10.9,39.1-28,52.2c-20.6,15.7-43.5,18.6-68,10.6c-1.1-0.4-2.2-0.8-3.2-1.3
		C-571.8,445-571.9,444.6-572.2,444z"/>
</g>
</svg>
