<?xml version="1.0" encoding="utf-8"?>
<!-- Generator: Adobe Illustrator 16.0.0, SVG Export Plug-In . SVG Version: 6.00 Build 0)  -->
<!DOCTYPE svg PUBLIC "-//W3C//DTD SVG 1.1//EN" "http://www.w3.org/Graphics/SVG/1.1/DTD/svg11.dtd">
<svg version="1.1" xmlns="http://www.w3.org/2000/svg" xmlns:xlink="http://www.w3.org/1999/xlink" x="0px" y="0px" width="488px"
	 height="615px" viewBox="0 0 488 615" enable-background="new 0 0 488 615" xml:space="preserve">
<g id="Layer_1">
	<g id="completed" display="none">
		<g display="inline">
			<path fill="none" stroke="#FFFF66" stroke-width="10" stroke-linejoin="round" stroke-miterlimit="10" d="M156,50h240
				c22.092,0,40,17.908,40,40s-17.908,40-40,40H96c-22.092,0-40,17.908-40,40s17.908,40,40,40h300c22.092,0,40,17.908,40,40
				s-17.908,40-40,40H96c-22.092,0-40,17.908-40,40s17.908,40,40,40h300c22.092,0,40,17.908,40,40s-17.908,40-40,40H96
				c-22.092,0-40,17.908-40,40s17.908,40,40,40h300c22.092,0,40,17.908,40,40"/>
		</g>
		<g display="inline">
			<path fill="none" stroke="#D6D6D6" stroke-width="2" d="M156,50h240c22.092,0,40,17.908,40,40s-17.908,40-40,40H96
				c-22.092,0-40,17.908-40,40s17.908,40,40,40h300c22.092,0,40,17.908,40,40s-17.908,40-40,40H96c-22.092,0-40,17.908-40,40
				s17.908,40,40,40h300c22.092,0,40,17.908,40,40s-17.908,40-40,40H96c-22.092,0-40,17.908-40,40s17.908,40,40,40h300
				c22.092,0,40,17.908,40,40"/>
		</g>
	</g>
	<g>
		<rect x="310" y="515" fill="#D6D6D6" width="1" height="20"/>
		<text transform="matrix(1 0 0 1 319.5 521)" fill="#666666" font-family="'Theinhardt-Lt'" font-size="9">5</text>
	</g>
	<g>
		<rect x="429" y="577" fill="#D6D6D6" width="20" height="1"/>
		<text transform="matrix(1 0 0 1 444.3828 567)" fill="#666666" font-family="'Theinhardt-Lt'" font-size="9">0</text>
	</g>
	<g>
		<rect x="429" y="417" fill="#D6D6D6" width="20" height="1"/>
		<text transform="matrix(1 0 0 1 439 407)" fill="#666666" font-family="'Theinhardt-Lt'" font-size="9">30</text>
	</g>
	<g>
		<rect x="429" y="254" fill="#D6D6D6" width="20" height="1"/>
		<text transform="matrix(1 0 0 1 439 244)" fill="#666666" font-family="'Theinhardt-Lt'" font-size="9">60</text>
	</g>
	<g>
		<rect x="429" y="94" fill="#D6D6D6" width="20" height="1"/>
		<text transform="matrix(1 0 0 1 439 84)" fill="#666666" font-family="'Theinhardt-Lt'" font-size="9">90</text>
	</g>
	<g>
		<rect x="27" y="497" fill="#D6D6D6" width="20" height="1"/>
		<text transform="matrix(1 0 0 1 27 487)" fill="#666666" font-family="'Theinhardt-Lt'" font-size="9">15</text>
	</g>
	<g>
		<rect x="27" y="336" fill="#D6D6D6" width="20" height="1"/>
		<text transform="matrix(1 0 0 1 27 326)" fill="#666666" font-family="'Theinhardt-Lt'" font-size="9">45</text>
	</g>
	<g>
		<rect x="27" y="177" fill="#D6D6D6" width="20" height="1"/>
		<text transform="matrix(1 0 0 1 27 167)" fill="#666666" font-family="'Theinhardt-Lt'" font-size="9">75</text>
	</g>
	<g>
		<rect x="168" y="515" fill="#D6D6D6" width="1" height="20"/>
		<text transform="matrix(1 0 0 1 177.5 521)" fill="#666666" font-family="'Theinhardt-Lt'" font-size="9">10</text>
	</g>
	<g>
		<rect x="308" y="435" fill="#D6D6D6" width="1" height="20"/>
		<text transform="matrix(1 0 0 1 317.5 441)" fill="#666666" font-family="'Theinhardt-Lt'" font-size="9">25</text>
	</g>
	<g>
		<rect x="168" y="435" fill="#D6D6D6" width="1" height="20"/>
		<text transform="matrix(1 0 0 1 177.5 441)" fill="#666666" font-family="'Theinhardt-Lt'" font-size="9">20</text>
	</g>
	<g>
		<rect x="310" y="355" fill="#D6D6D6" width="1" height="20"/>
		<text transform="matrix(1 0 0 1 319.5 361)" fill="#666666" font-family="'Theinhardt-Lt'" font-size="9">35</text>
	</g>
	<g>
		<rect x="168" y="355" fill="#D6D6D6" width="1" height="20"/>
		<text transform="matrix(1 0 0 1 177.5 361)" fill="#666666" font-family="'Theinhardt-Lt'" font-size="9">40</text>
	</g>
	<g>
		<rect x="308" y="275" fill="#D6D6D6" width="1" height="20"/>
		<text transform="matrix(1 0 0 1 317.5 281)" fill="#666666" font-family="'Theinhardt-Lt'" font-size="9">55</text>
	</g>
	<g>
		<rect x="168" y="275" fill="#D6D6D6" width="1" height="20"/>
		<text transform="matrix(1 0 0 1 177.5 281)" fill="#666666" font-family="'Theinhardt-Lt'" font-size="9">50</text>
	</g>
	<g>
		<rect x="310" y="195" fill="#D6D6D6" width="1" height="20"/>
		<text transform="matrix(1 0 0 1 319.5 201)" fill="#666666" font-family="'Theinhardt-Lt'" font-size="9">65</text>
	</g>
	<g>
		<rect x="168" y="195" fill="#D6D6D6" width="1" height="20"/>
		<text transform="matrix(1 0 0 1 177.5 201)" fill="#666666" font-family="'Theinhardt-Lt'" font-size="9">70</text>
	</g>
	<g>
		<rect x="308" y="115" fill="#D6D6D6" width="1" height="20"/>
		<text transform="matrix(1 0 0 1 317.5 121)" fill="#666666" font-family="'Theinhardt-Lt'" font-size="9">85</text>
	</g>
	<g>
		<rect x="166" y="115" fill="#D6D6D6" width="1" height="20"/>
		<text transform="matrix(1 0 0 1 175.5 121)" fill="#666666" font-family="'Theinhardt-Lt'" font-size="9">80</text>
	</g>
	<g>
		<rect x="311" y="35" fill="#D6D6D6" width="1" height="20"/>
		<text transform="matrix(1 0 0 1 320.5 41)" fill="#666666" font-family="'Theinhardt-Lt'" font-size="9">95</text>
	</g>
	<g>
		<rect x="168" y="35" fill="#D6D6D6" width="1" height="20"/>
		<text transform="matrix(1 0 0 1 177.5 41)" fill="#666666" font-family="'Theinhardt-Lt'" font-size="9">100</text>
	</g>
	<g id="guides">
	</g>
</g>
<g id="Ebene_2">
	<path fill="none" stroke="#000000" stroke-miterlimit="10" d="M428.082,575.186c0-22.092-17.658-40-39.75-40h-300
		c-22.092,0-40-17.908-40-40s17.908-40,40-40h300c22.092,0,40-17.908,40-40s-17.908-40-40-40h-300c-22.092,0-40-17.908-40-40
		s17.908-40,40-40h300c22.092,0,40-17.908,40-40s-17.908-40-40-40h-300c-22.092,0-40-17.908-40-40s17.908-40,40-40h300
		c22.092,0,40-17.908,40-40s-17.908-40-40-40h-219.5"/>
</g>
</svg>
