<?xml version="1.0" encoding="utf-8"?>
<!-- Generator: Adobe Illustrator 19.1.0, SVG Export Plug-In . SVG Version: 6.00 Build 0)  -->
<svg version="1.1" id="Ebene_1" xmlns="http://www.w3.org/2000/svg" xmlns:xlink="http://www.w3.org/1999/xlink" x="0px" y="0px"
	 viewBox="0 0 128 128" style="enable-background:new 0 0 128 128;" xml:space="preserve">
<style type="text/css">
	.st0{fill:#010101;}
	.st1{fill:#020202;}
</style>
<g>
	<path class="st0" d="M56.5,74.7c0-9.8,0-19.7,0-29.5c0-1.3,0.8-3.4-1.6-3.5c-2.4-0.1-1.7,2-1.7,3.3c-0.1,6.8,0.1,13.7-0.1,20.5
		c0,1.5,1.5,4.2-1.5,4.3C48.7,70,47.9,67.7,48,65c0.1-5.8,0-11.7,0-17.5c0-16.4,0.7-17.1,17.2-17.1C81.1,30.5,82,31.4,82,47
		c0,5.8,0,11.7,0,17.5c0,1.3,0.3,2.7-0.6,3.8c-0.9,1.1-2,1.9-3.4,1.6c-1.8-0.3-1.1-1.8-1.1-2.8c-0.1-7.3,0-14.7-0.1-22
		c0-1.3,0.7-3.4-1.6-3.4c-2.4,0-1.6,2.1-1.6,3.4c0,18.7,0,37.3,0,56c0,1.2,0,2.3,0,3.5c0,2.2-0.7,4.2-3.2,4.3
		c-2.7,0.1-3.8-1.7-3.8-4.2c0-5.5,0-11,0-16.5c0-6.2,0-12.3,0-18.5c0-1.3,0.7-3.5-1.7-3.3c-1.8,0.1-1.2,2.1-1.3,3.3
		c0,10.3,0,20.7,0,31c0,1.2,0,2.3,0,3.5c-0.1,2.5-0.7,4.9-3.8,4.7c-2.8-0.2-3.3-2.3-3.2-4.7C56.5,94.3,56.5,84.5,56.5,74.7z"/>
	<path class="st1" d="M71,21.9c-0.3,2.8-2,5.1-5.8,5.3c-3.6,0.1-6.3-2.6-6.1-6.3c0.1-3.7,2.1-5.9,5.8-6.1
		C68.4,14.5,71.1,17.4,71,21.9z"/>
</g>
</svg>
