<?xml version="1.0" encoding="utf-8"?>
<!-- Generator: Adobe Illustrator 19.1.0, SVG Export Plug-In . SVG Version: 6.00 Build 0)  -->
<svg version="1.1" id="Ebene_1" xmlns="http://www.w3.org/2000/svg" xmlns:xlink="http://www.w3.org/1999/xlink" x="0px" y="0px"
	 viewBox="0 0 128 128" style="enable-background:new 0 0 128 128;" xml:space="preserve">
<style type="text/css">
	.st0{fill:#010101;}
	.st1{fill:#020202;}
</style>
<g>
	<path d="M80,82c-9.4,0-18.6-0.1-27.7,0c-2.9,0-2.2-1.3-1.8-3.1c2.5-10.2,5-20.3,7.3-30.5c0.3-1.1,2-3-0.5-3.7
		c-2.8-0.8-2.2,1.7-2.6,3.1c-1.7,6.8-3.2,13.6-5,20.3c-0.4,1.3,0.4,4.3-2.7,3.5c-2.7-0.7-3.6-2.7-2.9-5.4c1.5-5.8,3.1-11.6,4.3-17.4
		c3.4-16.5,4.9-15.6,22.7-15.1c4.5,0.1,7.3,3,8.4,7.3c2.1,8.4,4.1,16.8,6.2,25.2c0.4,1.7,0.4,3.4-1,4.6c-2.1,1.7-3.7,1.8-4.4-1.5
		c-1.6-7.3-3.5-14.5-5.2-21.8c-0.3-1.3,0-3.4-2.4-2.8c-2.5,0.6-1,2.4-0.7,3.6C74.6,59.3,77.3,70.5,80,82z"/>
	<path class="st0" d="M63.2,98.5c0,3.3,0,6.6,0,10c0,2.2-1.1,3.5-3.2,3.6c-2.3,0.2-3.9-1.1-4-3.4c-0.1-7.1-0.1-14.3-0.1-21.4
		c0-3.2,2.5-1.8,4-2c1.7-0.2,3.4-0.3,3.3,2.3C63.1,91.2,63.2,94.8,63.2,98.5z"/>
	<path class="st0" d="M74.2,98c0,3.2,0,6.3,0,9.5c0,2.7-0.9,4.7-3.9,4.6c-2.7-0.1-3.5-1.9-3.5-4.4c0.1-6.5,0.2-13,0-19.4
		c-0.1-3,1.4-3.1,3.7-3.1c2.1,0.1,4-0.3,3.8,2.9C74,91.3,74.2,94.7,74.2,98z"/>
	<path class="st1" d="M71.5,24c-0.4,3.4-2.2,6-6.2,6.1c-3.9,0.2-6.3-2.1-6.7-5.9c-0.4-3.7,2.6-6.7,6.4-6.7
		C68.6,17.5,71.4,20.1,71.5,24z"/>
</g>
</svg>
